<svg width="375" height="302" viewBox="0 0 375 302" fill="none" xmlns="http://www.w3.org/2000/svg">
<path d="M326.27 144.605C334.048 227.528 261.232 302.059 163.426 302C65.6079 302.059 -7.20874 227.517 0.569405 144.605C8.3239 61.4686 81.1524 0.165492 163.414 0C245.675 0.165492 318.516 61.4686 326.27 144.605Z" fill="#2EE461"/>
<path d="M240.959 151H76.4123C70.9037 151 66.069 147.359 64.5559 142.063L36.6586 44.6356C35.2638 39.7772 38.9164 34.9307 43.9758 34.9307H254.908" fill="white"/>
<path d="M121.8 232.371C124.596 215.331 113.049 199.251 96.0088 196.455C78.9688 193.659 62.8889 205.207 60.0933 222.247C57.2976 239.287 68.8448 255.366 85.8848 258.162C102.925 260.958 119.005 249.411 121.8 232.371Z" fill="white"/>
<path d="M235.488 232.283C238.232 215.234 226.636 199.189 209.588 196.445C192.539 193.701 176.494 205.298 173.75 222.346C171.006 239.395 182.603 255.44 199.651 258.184C216.7 260.927 232.745 249.331 235.488 232.283Z" fill="white"/>
<path d="M204.61 231.819C207.104 231.819 209.125 229.798 209.125 227.304C209.125 224.81 207.104 222.788 204.61 222.788C202.116 222.788 200.094 224.81 200.094 227.304C200.094 229.798 202.116 231.819 204.61 231.819Z" fill="white"/>
<path d="M105.645 265.237C122.913 265.237 136.912 251.239 136.912 233.971C136.912 216.703 122.913 202.705 105.645 202.705C88.3775 202.705 74.3792 216.703 74.3792 233.971C74.3792 251.239 88.3775 265.237 105.645 265.237Z" stroke="#424243" stroke-width="10.8436" stroke-miterlimit="10" stroke-linecap="round"/>
<path d="M100.231 202.693H222.731C236.148 202.693 248.099 194.17 252.461 181.474L302.948 34.5881C307.31 21.8925 319.249 13.3696 332.677 13.3696H369.405" stroke="#424243" stroke-width="10.8436" stroke-miterlimit="10" stroke-linecap="round"/>
<path d="M105.645 238.487C108.139 238.487 110.161 236.465 110.161 233.971C110.161 231.477 108.139 229.456 105.645 229.456C103.152 229.456 101.13 231.477 101.13 233.971C101.13 236.465 103.152 238.487 105.645 238.487Z" stroke="#424243" stroke-width="3.6146" stroke-miterlimit="10" stroke-linecap="round"/>
<path d="M219.303 265.237C236.571 265.237 250.57 251.239 250.57 233.971C250.57 216.703 236.571 202.705 219.303 202.705C202.035 202.705 188.037 216.703 188.037 233.971C188.037 251.239 202.035 265.237 219.303 265.237Z" stroke="#424243" stroke-width="10.8436" stroke-miterlimit="10" stroke-linecap="round"/>
<path d="M219.303 238.486C221.797 238.486 223.819 236.465 223.819 233.971C223.819 231.477 221.797 229.455 219.303 229.455C216.809 229.455 214.788 231.477 214.788 233.971C214.788 236.465 216.809 238.486 219.303 238.486Z" stroke="#424243" stroke-width="3.6146" stroke-miterlimit="10" stroke-linecap="round"/>
<path d="M258.75 163.164H94.2146C88.7061 163.164 83.8713 159.523 82.3583 154.227L54.4492 56.7997C53.0543 51.9413 56.7069 47.0947 61.7663 47.0947H272.698" stroke="#424243" stroke-width="10.8436" stroke-miterlimit="10" stroke-linecap="round"/>
<path d="M92.7488 75.2639H288.964" stroke="#424243" stroke-width="7.2291" stroke-miterlimit="10" stroke-linecap="round"/>
<path d="M109.487 116.956H274.625" stroke="#424243" stroke-width="7.2291" stroke-miterlimit="10" stroke-linecap="round"/>
<path d="M22.1663 284.753C22.1663 284.753 142.408 244.066 304.674 284.753" stroke="#424243" stroke-width="7.2291" stroke-miterlimit="10" stroke-linecap="round"/>
</svg>
