<svg width="630" height="220" viewBox="0 0 630 220" fill="none" xmlns="http://www.w3.org/2000/svg">
<rect x="322.601" y="98.351" width="146.702" height="88.4175" fill="white"/>
<path d="M467.356 186.796C462.511 186.796 457.669 186.796 452.824 186.796C441.195 186.796 429.566 186.796 417.941 186.796C403.937 186.796 389.937 186.796 375.933 186.796C363.776 186.796 351.616 186.796 339.46 186.796C335.455 186.796 331.451 186.796 327.442 186.796C325.638 186.796 323.552 186.503 321.764 186.796C321.681 186.808 321.586 186.796 321.503 186.796C322.101 187.395 322.7 187.994 323.299 188.592C323.299 178.513 323.299 168.431 323.299 158.352C323.299 142.294 323.299 126.24 323.299 110.182C323.299 106.511 323.299 102.843 323.299 99.1717C322.7 99.7704 322.101 100.369 321.503 100.968C326.348 100.968 331.189 100.968 336.034 100.968C347.663 100.968 359.292 100.968 370.917 100.968C384.921 100.968 398.921 100.968 412.926 100.968C425.082 100.968 437.242 100.968 449.399 100.968C453.403 100.968 457.408 100.968 461.416 100.968C463.22 100.968 465.306 101.261 467.094 100.968C467.177 100.956 467.272 100.968 467.356 100.968C466.757 100.369 466.158 99.7704 465.56 99.1717C465.56 109.25 465.56 119.333 465.56 129.412C465.56 145.47 465.56 161.524 465.56 177.582C465.56 181.253 465.56 184.921 465.56 188.592C465.56 190.904 469.152 190.908 469.152 188.592C469.152 178.513 469.152 168.431 469.152 158.352C469.152 142.294 469.152 126.24 469.152 110.182C469.152 106.511 469.152 102.843 469.152 99.1717C469.152 98.2002 468.327 97.3755 467.356 97.3755C462.511 97.3755 457.669 97.3755 452.824 97.3755C441.195 97.3755 429.566 97.3755 417.941 97.3755C403.937 97.3755 389.937 97.3755 375.933 97.3755C363.776 97.3755 351.616 97.3755 339.46 97.3755C333.584 97.3755 327.64 97.1218 321.768 97.3755C321.681 97.3795 321.594 97.3755 321.507 97.3755C320.535 97.3755 319.71 98.2002 319.71 99.1717C319.71 109.25 319.71 119.333 319.71 129.412C319.71 145.47 319.71 161.524 319.71 177.582C319.71 181.253 319.71 184.921 319.71 188.592C319.71 189.564 320.535 190.388 321.507 190.388C326.352 190.388 331.193 190.388 336.038 190.388C347.667 190.388 359.296 190.388 370.921 190.388C384.925 190.388 398.925 190.388 412.929 190.388C425.086 190.388 437.246 190.388 449.403 190.388C455.279 190.388 461.222 190.642 467.094 190.388C467.181 190.384 467.269 190.388 467.356 190.388C469.667 190.388 469.671 186.796 467.356 186.796Z" fill="#424243"/>
<path d="M478.648 188.592H310.667V198.318H478.648V188.592Z" fill="#F0F1F1"/>
<path d="M478.648 186.796C473.081 186.796 467.518 186.796 461.952 186.796C448.586 186.796 435.216 186.796 421.85 186.796C405.678 186.796 389.505 186.796 373.328 186.796C359.34 186.796 345.355 186.796 331.367 186.796C324.583 186.796 317.736 186.527 310.952 186.796C310.857 186.8 310.758 186.796 310.663 186.796C309.691 186.796 308.866 187.621 308.866 188.592C308.866 191.836 308.866 195.079 308.866 198.318C308.866 200.63 312.459 200.634 312.459 198.318C312.459 195.674 312.459 193.029 312.459 190.388C317.427 190.388 322.391 190.388 327.359 190.388C340.724 190.388 354.094 190.388 367.46 190.388C383.633 190.388 399.806 190.388 415.982 190.388C429.971 190.388 443.955 190.388 457.943 190.388C462.554 190.388 467.169 190.388 471.781 190.388C473.394 190.388 475.171 190.571 476.852 190.515C476.852 193.116 476.852 195.717 476.852 198.318C476.852 200.63 480.444 200.634 480.444 198.318C480.444 195.075 480.444 191.832 480.444 188.592C480.444 187.621 479.619 186.796 478.648 186.796Z" fill="#424243"/>
<path d="M454.22 129.349H420.732V188.592H454.22V129.349Z" fill="white"/>
<path d="M454.22 127.552C444.458 127.552 434.693 127.552 424.931 127.552C423.532 127.552 422.132 127.552 420.732 127.552C419.761 127.552 418.936 128.377 418.936 129.349C418.936 146.616 418.936 163.879 418.936 181.146C418.936 183.628 418.936 186.114 418.936 188.596C418.936 189.568 419.761 190.392 420.732 190.392C430.494 190.392 440.26 190.392 450.021 190.392C451.421 190.392 452.82 190.392 454.22 190.392C454.747 190.392 455.148 190.202 455.433 189.913C455.453 189.893 455.473 189.873 455.493 189.853C455.505 189.841 455.517 189.829 455.525 189.817C455.818 189.532 456.012 189.128 456.012 188.592C456.012 171.325 456.012 154.062 456.012 136.795C456.012 134.313 456.012 131.827 456.012 129.345C456.016 128.377 455.195 127.552 454.22 127.552ZM424.931 186.796C424.13 186.796 423.329 186.796 422.529 186.796C422.529 170.128 422.529 153.463 422.529 136.795C422.529 134.911 422.529 133.024 422.529 131.141C431.691 131.141 440.858 131.141 450.021 131.141C450.822 131.141 451.623 131.141 452.424 131.141C452.424 147.809 452.424 164.474 452.424 181.142C452.424 183.026 452.424 184.913 452.424 186.796C443.261 186.796 434.098 186.796 424.931 186.796Z" fill="#424243"/>
<path d="M411.538 129.749H330.158V170.956H411.538V129.749Z" fill="white"/>
<path d="M413.639 129.329C413.639 128.139 412.632 127.132 411.443 127.132C402.272 127.132 393.101 127.132 383.93 127.132C369.319 127.132 354.709 127.132 340.098 127.132C336.752 127.132 333.409 127.132 330.063 127.132C328.873 127.132 327.866 128.139 327.866 129.329C327.866 140.688 327.866 159.181 327.866 170.536C327.866 171.726 328.873 172.733 330.063 172.733C339.234 172.733 348.405 172.733 357.575 172.733C372.186 172.733 386.797 172.733 401.407 172.733C404.754 172.733 408.096 172.733 411.443 172.733C412.089 172.733 412.577 172.499 412.929 172.146C412.957 172.126 412.977 172.098 413.005 172.074C413.017 172.059 413.033 172.047 413.044 172.031C413.401 171.678 413.639 171.186 413.639 170.532C413.639 159.181 413.639 140.688 413.639 129.329ZM383.926 168.34C369.315 168.34 354.705 168.34 340.094 168.34C337.481 168.34 334.868 168.34 332.255 168.34C332.255 158.447 332.255 141.422 332.255 131.529C340.693 131.529 349.13 131.529 357.571 131.529C372.182 131.529 386.793 131.529 401.403 131.529C404.016 131.529 406.629 131.529 409.242 131.529C409.242 141.422 409.242 158.447 409.242 168.34C400.801 168.34 392.363 168.34 383.926 168.34Z" fill="#424243"/>
<g opacity="0.48">
<g opacity="0.48">
<g opacity="0.48">
<g opacity="0.48">
<g opacity="0.48">
<g opacity="0.48">
<g opacity="0.48">
<g opacity="0.48">
<g opacity="0.48">
<path opacity="0.48" d="M391.622 205.863H311.693C310.952 205.863 310.345 205.257 310.345 204.515C310.345 203.774 310.952 203.167 311.693 203.167H391.622C392.363 203.167 392.97 203.774 392.97 204.515C392.97 205.257 392.363 205.863 391.622 205.863Z" fill="#424243"/>
</g>
</g>
</g>
</g>
</g>
</g>
</g>
</g>
</g>
<g opacity="0.48">
<g opacity="0.48">
<g opacity="0.48">
<g opacity="0.48">
<g opacity="0.48">
<g opacity="0.48">
<g opacity="0.48">
<g opacity="0.48">
<g opacity="0.48">
<path opacity="0.48" d="M399.167 205.863H397.193C396.451 205.863 395.845 205.257 395.845 204.515C395.845 203.774 396.451 203.167 397.193 203.167H399.167C399.909 203.167 400.515 203.774 400.515 204.515C400.515 205.257 399.909 205.863 399.167 205.863Z" fill="#424243"/>
</g>
</g>
</g>
</g>
</g>
</g>
</g>
</g>
</g>
<g opacity="0.48">
<g opacity="0.48">
<g opacity="0.48">
<g opacity="0.48">
<g opacity="0.48">
<g opacity="0.48">
<g opacity="0.48">
<g opacity="0.48">
<g opacity="0.48">
<path opacity="0.48" d="M466.254 213.048H388.478C387.689 213.048 387.043 212.401 387.043 211.612C387.043 210.823 387.689 210.177 388.478 210.177H466.254C467.043 210.177 467.689 210.823 467.689 211.612C467.693 212.401 467.043 213.048 466.254 213.048Z" fill="#424243"/>
</g>
</g>
</g>
</g>
</g>
</g>
</g>
</g>
</g>
<g opacity="0.48">
<g opacity="0.48">
<g opacity="0.48">
<g opacity="0.48">
<g opacity="0.48">
<g opacity="0.48">
<g opacity="0.48">
<g opacity="0.48">
<g opacity="0.48">
<path opacity="0.48" d="M475.056 213.048H471.463C470.674 213.048 470.028 212.401 470.028 211.612C470.028 210.823 470.674 210.177 471.463 210.177H475.056C475.845 210.177 476.491 210.823 476.491 211.612C476.491 212.401 475.845 213.048 475.056 213.048Z" fill="#424243"/>
</g>
</g>
</g>
</g>
</g>
</g>
</g>
</g>
</g>
<path d="M449.371 143.884H425.601V151.441H449.371V143.884Z" fill="#F0F1F1"/>
<path d="M449.371 150.541C441.449 150.541 433.523 150.541 425.601 150.541C425.903 150.842 426.2 151.14 426.501 151.441C426.501 148.923 426.501 146.402 426.501 143.884C426.2 144.185 425.903 144.483 425.601 144.784C433.523 144.784 441.449 144.784 449.371 144.784C449.07 144.483 448.772 144.185 448.471 143.884C448.471 146.402 448.471 148.923 448.471 151.441C448.471 152.595 450.267 152.599 450.267 151.441C450.267 148.923 450.267 146.402 450.267 143.884C450.267 143.4 449.855 142.984 449.367 142.984C441.445 142.984 433.519 142.984 425.597 142.984C425.114 142.984 424.697 143.396 424.697 143.884C424.697 146.402 424.697 148.923 424.697 151.441C424.697 151.925 425.11 152.341 425.597 152.341C433.519 152.341 441.445 152.341 449.367 152.341C450.525 152.337 450.529 150.541 449.371 150.541Z" fill="#424243"/>
<path d="M436.842 133.801C432.885 136.949 428.924 140.097 424.967 143.246C424.333 143.749 424.884 144.78 425.601 144.78C433.523 144.78 441.449 144.78 449.371 144.78C450.085 144.78 450.64 143.753 450.005 143.246C446.04 140.097 442.076 136.949 438.115 133.801C437.219 133.091 435.938 134.352 436.846 135.07C440.811 138.218 444.776 141.366 448.737 144.514C448.947 144.003 449.161 143.491 449.371 142.98C441.449 142.98 433.523 142.98 425.601 142.98C425.811 143.491 426.026 144.003 426.236 144.514C430.193 141.366 434.154 138.218 438.111 135.07C439.019 134.352 437.738 133.087 436.842 133.801Z" fill="#424243"/>
<path d="M390.77 171.19C390.77 175.853 386.416 180.381 382.423 180.381C378.427 180.381 374.7 175.853 374.7 171.19C374.7 166.528 378.427 163.494 382.423 163.494C386.416 163.494 390.77 166.528 390.77 171.19Z" fill="#BCD589"/>
<path d="M382.419 181.206C378.026 181.206 373.871 176.337 373.871 171.19C373.871 165.858 378.217 162.67 382.419 162.67C386.848 162.67 391.594 166.095 391.594 171.19C391.594 176.15 386.963 181.206 382.419 181.206ZM382.419 164.319C379.029 164.319 375.521 166.888 375.521 171.19C375.521 175.413 378.938 179.556 382.419 179.556C386.075 179.556 389.945 175.254 389.945 171.19C389.945 167.079 386.051 164.319 382.419 164.319Z" fill="#424243"/>
<path d="M369.155 178.301C373.082 176.675 374.947 172.173 373.32 168.246C371.693 164.319 367.191 162.454 363.265 164.081C359.338 165.707 357.473 170.209 359.1 174.136C360.726 178.063 365.228 179.928 369.155 178.301Z" fill="#BCD589"/>
<path d="M366.199 179.778C361.461 179.778 357.611 175.924 357.611 171.19C357.611 166.456 361.465 162.602 366.199 162.602C370.933 162.602 374.787 166.456 374.787 171.19C374.787 175.928 370.933 179.778 366.199 179.778ZM366.199 164.387C362.444 164.387 359.391 167.439 359.391 171.194C359.391 174.949 362.444 178.002 366.199 178.002C369.95 178.002 373.007 174.949 373.007 171.194C373.003 167.439 369.95 164.387 366.199 164.387Z" fill="#424243"/>
<path d="M404.536 163.324C400.884 163.324 397.803 165.881 396.824 169.382C395.297 168.133 393.378 167.38 391.293 167.38C387.423 167.38 384.128 169.945 382.852 173.538C381.571 169.941 378.28 167.38 374.41 167.38C370.755 167.38 367.618 169.664 366.199 172.943C364.966 169.251 361.627 166.599 357.69 166.599C352.706 166.599 348.67 170.837 348.67 176.067C348.67 181.297 352.71 185.535 357.69 185.535C361.346 185.535 364.482 183.252 365.902 179.973C367.135 183.664 370.473 186.316 374.41 186.316C378.28 186.316 381.575 183.751 382.852 180.159C384.132 183.755 387.423 186.316 391.293 186.316C395.631 186.316 399.251 183.101 400.115 178.815C401.384 179.695 402.902 180.21 404.536 180.21C408.98 180.21 412.581 176.432 412.581 171.765C412.581 167.098 408.976 163.324 404.536 163.324Z" fill="#AECC62"/>
<path d="M391.289 187.189C387.816 187.189 384.62 185.254 382.848 182.217C381.075 185.254 377.876 187.189 374.406 187.189C370.81 187.189 367.547 185.147 365.81 181.955C363.983 184.711 360.953 186.412 357.686 186.412C352.235 186.412 347.798 181.773 347.798 176.075C347.798 170.374 352.235 165.739 357.686 165.739C361.279 165.739 364.546 167.78 366.278 170.972C368.106 168.217 371.135 166.516 374.402 166.516C377.876 166.516 381.071 168.455 382.844 171.488C384.616 168.451 387.816 166.516 391.285 166.516C393.105 166.516 394.845 167.027 396.384 168.003C397.795 164.688 400.995 162.46 404.532 162.46C409.448 162.46 413.445 166.639 413.445 171.773C413.445 176.908 409.448 181.087 404.532 181.087C403.18 181.087 401.859 180.77 400.658 180.159C399.322 184.294 395.551 187.189 391.289 187.189ZM382.848 179.291C383.216 179.291 383.546 179.521 383.668 179.87C384.858 183.208 387.919 185.448 391.293 185.448C395.115 185.448 398.469 182.585 399.262 178.644C399.322 178.359 399.52 178.117 399.79 178.01C400.059 177.899 400.369 177.935 400.61 178.101C401.78 178.914 403.14 179.342 404.54 179.342C408.497 179.342 411.716 175.944 411.716 171.769C411.716 167.594 408.497 164.196 404.54 164.196C401.388 164.196 398.561 166.424 397.665 169.616C397.585 169.898 397.371 170.124 397.09 170.211C396.808 170.298 396.503 170.239 396.277 170.056C394.834 168.875 393.113 168.252 391.297 168.252C387.927 168.252 384.862 170.496 383.672 173.835C383.549 174.184 383.22 174.414 382.852 174.414C382.483 174.414 382.154 174.184 382.031 173.835C380.841 170.496 377.781 168.252 374.406 168.252C371.227 168.252 368.316 170.231 366.992 173.292C366.849 173.621 366.508 173.827 366.155 173.815C365.795 173.799 365.481 173.561 365.366 173.22C364.221 169.783 361.132 167.471 357.682 167.471C353.19 167.471 349.531 171.329 349.531 176.071C349.531 180.813 353.186 184.671 357.682 184.671C360.862 184.671 363.773 182.693 365.097 179.632C365.24 179.303 365.584 179.116 365.933 179.108C366.294 179.124 366.607 179.362 366.722 179.703C367.868 183.141 370.957 185.452 374.406 185.452C377.777 185.452 380.841 183.208 382.031 179.873C382.15 179.521 382.479 179.291 382.848 179.291Z" fill="#424243"/>
<path d="M415.467 175.702H345.776V187.629H415.467V175.702Z" fill="#F0F1F1"/>
<path d="M415.467 188.521H345.776C345.284 188.521 344.884 188.12 344.884 187.629V175.702C344.884 175.211 345.284 174.81 345.776 174.81H415.467C415.959 174.81 416.359 175.211 416.359 175.702V187.629C416.359 188.12 415.963 188.521 415.467 188.521ZM346.668 186.737H414.575V176.591H346.668V186.737Z" fill="#424243"/>
<path d="M378.407 172.99C378.026 173.871 377.237 174.374 376.651 174.12C376.06 173.867 375.889 172.947 376.274 172.067C376.655 171.186 377.444 170.683 378.03 170.937C378.617 171.194 378.788 172.114 378.407 172.99Z" fill="#BCD589"/>
<path d="M392.526 171.381C392.498 172.067 392.102 172.61 391.642 172.59C391.182 172.57 390.829 171.999 390.857 171.313C390.885 170.627 391.281 170.084 391.741 170.104C392.201 170.124 392.554 170.695 392.526 171.381Z" fill="#BCD589"/>
<path d="M410.432 171.757C410.051 172.638 409.262 173.141 408.675 172.887C408.084 172.634 407.914 171.714 408.298 170.833C408.679 169.953 409.468 169.45 410.055 169.704C410.646 169.957 410.816 170.877 410.432 171.757Z" fill="#BCD589"/>
<path d="M362.016 171.19C362.016 172.15 361.497 172.923 360.85 172.923C360.208 172.923 359.685 172.146 359.685 171.19C359.685 170.231 360.204 169.458 360.85 169.458C361.493 169.458 362.016 170.235 362.016 171.19Z" fill="#BCD589"/>
<path d="M380.782 166.456C380.945 167.067 380.746 167.65 380.338 167.761C379.93 167.872 379.462 167.463 379.299 166.853C379.137 166.242 379.335 165.659 379.743 165.548C380.156 165.441 380.619 165.846 380.782 166.456Z" fill="#AECC62"/>
<path d="M368.737 166.904C368.534 167.503 368.043 167.876 367.642 167.741C367.242 167.602 367.079 167.007 367.285 166.409C367.488 165.81 367.979 165.437 368.38 165.572C368.78 165.707 368.943 166.306 368.737 166.904Z" fill="#AECC62"/>
<path d="M355.296 172.039C355.315 172.84 354.812 173.502 354.17 173.522C353.527 173.538 352.988 172.903 352.968 172.102C352.948 171.301 353.452 170.639 354.094 170.619C354.737 170.6 355.272 171.238 355.296 172.039Z" fill="#BCD589"/>
<path d="M478.58 91.8207H310.956V101.975H478.58V91.8207Z" fill="white"/>
<path d="M478.58 102.867H310.956C310.464 102.867 310.064 102.466 310.064 101.975V91.8207C310.064 91.329 310.464 90.9286 310.956 90.9286H478.58C479.072 90.9286 479.473 91.329 479.473 91.8207V101.975C479.469 102.466 479.072 102.867 478.58 102.867ZM311.848 101.083H477.688V92.7088H311.848V101.083Z" fill="#424243"/>
<path d="M365.501 74.724C365.501 79.3867 361.148 83.9147 357.155 83.9147C353.158 83.9147 349.431 79.3867 349.431 74.724C349.431 70.0613 353.158 67.0281 357.155 67.0281C361.148 67.0281 365.501 70.0613 365.501 74.724Z" fill="#BCD589"/>
<path d="M357.155 84.7394C352.762 84.7394 348.607 79.8744 348.607 74.724C348.607 69.3873 352.952 66.1995 357.155 66.1995C361.584 66.1995 366.33 69.6251 366.33 74.724C366.326 79.6881 361.699 84.7394 357.155 84.7394ZM357.155 67.8528C353.765 67.8528 350.256 70.4221 350.256 74.724C350.256 78.9466 353.674 83.09 357.155 83.09C360.811 83.09 364.677 78.792 364.677 74.724C364.677 70.6164 360.787 67.8528 357.155 67.8528Z" fill="#424243"/>
<path d="M348.329 76.8413C347.16 80.9291 342.897 83.2922 338.809 82.1226C334.722 80.9529 332.359 76.6906 333.528 72.6028C334.698 68.515 338.96 66.1519 343.048 67.3216C347.136 68.4952 349.499 72.7574 348.329 76.8413Z" fill="#BCD589"/>
<path d="M340.927 83.3159C340.146 83.3159 339.353 83.2089 338.568 82.9829C336.363 82.3525 334.535 80.9013 333.421 78.8951C332.307 76.8888 332.041 74.5694 332.672 72.3649C333.976 67.8132 338.734 65.1686 343.29 66.469C347.842 67.7735 350.486 72.5354 349.186 77.091C348.111 80.8537 344.662 83.3159 340.927 83.3159ZM340.935 67.9202C337.973 67.9202 335.241 69.8709 334.389 72.8565C333.889 74.605 334.099 76.4408 334.979 78.0307C335.864 79.6206 337.311 80.7705 339.059 81.27C342.667 82.2969 346.442 80.2075 347.477 76.5994C348.508 72.9913 346.414 69.2167 342.802 68.1819C342.18 68.0034 341.553 67.9202 340.935 67.9202Z" fill="#424243"/>
<path d="M379.267 66.8616C375.616 66.8616 372.535 69.419 371.556 72.92C370.025 71.6711 368.11 70.9177 366.025 70.9177C362.155 70.9177 358.86 73.483 357.583 77.0752C356.303 73.4791 353.012 70.9177 349.142 70.9177C345.486 70.9177 342.35 73.2015 340.931 76.4805C339.698 72.7892 336.359 70.1367 332.422 70.1367C327.438 70.1367 323.402 74.3751 323.402 79.6048C323.402 84.8345 327.442 89.073 332.422 89.073C336.078 89.073 339.214 86.7893 340.633 83.5103C341.866 87.2016 345.205 89.8541 349.142 89.8541C353.012 89.8541 356.307 87.2888 357.583 83.6966C358.864 87.2928 362.155 89.8541 366.025 89.8541C370.362 89.8541 373.982 86.6386 374.847 82.3525C376.115 83.2327 377.634 83.7482 379.267 83.7482C383.712 83.7482 387.312 79.9696 387.312 75.3029C387.312 70.6362 383.712 66.8616 379.267 66.8616Z" fill="#AECC62"/>
<path d="M366.025 90.7224C362.551 90.7224 359.356 88.7836 357.583 85.7504C355.811 88.7875 352.611 90.7224 349.142 90.7224C345.546 90.7224 342.283 88.6805 340.546 85.4848C338.718 88.2404 335.689 89.9413 332.422 89.9413C326.97 89.9413 322.533 85.3024 322.533 79.6048C322.533 73.9033 326.97 69.2683 332.422 69.2683C336.014 69.2683 339.281 71.3102 341.014 74.502C342.842 71.7464 345.871 70.0454 349.138 70.0454C352.611 70.0454 355.807 71.9803 357.579 75.0174C359.352 71.9803 362.551 70.0454 366.021 70.0454C367.84 70.0454 369.581 70.5569 371.119 71.5283C372.531 68.2136 375.731 65.9854 379.267 65.9854C384.184 65.9854 388.18 70.1644 388.18 75.2989C388.18 80.4335 384.18 84.6125 379.267 84.6125C377.915 84.6125 376.599 84.2953 375.394 83.6847C374.057 87.832 370.283 90.7224 366.025 90.7224ZM357.579 82.8243C357.948 82.8243 358.277 83.0543 358.4 83.4032C359.59 86.7416 362.65 88.9858 366.025 88.9858C369.847 88.9858 373.201 86.1231 373.994 82.182C374.053 81.8965 374.252 81.6547 374.521 81.5476C374.791 81.4366 375.1 81.4723 375.342 81.6388C376.512 82.4476 377.872 82.8798 379.267 82.8798C383.224 82.8798 386.444 79.4819 386.444 75.3069C386.444 71.1318 383.224 67.7339 379.267 67.7339C376.115 67.7339 373.288 69.9622 372.392 73.1539C372.313 73.4354 372.099 73.6614 371.817 73.7487C371.54 73.8359 371.23 73.7804 371.004 73.594C369.561 72.4125 367.837 71.79 366.025 71.79C362.654 71.79 359.59 74.0341 358.4 77.3686C358.277 77.7175 357.948 77.9475 357.579 77.9475C357.211 77.9475 356.881 77.7175 356.759 77.3686C355.569 74.0302 352.508 71.79 349.134 71.79C345.954 71.79 343.044 73.7685 341.72 76.8294C341.577 77.1585 341.232 77.3567 340.883 77.3527C340.522 77.3369 340.209 77.099 340.094 76.758C338.948 73.3204 335.86 71.0089 332.41 71.0089C327.914 71.0089 324.258 74.8667 324.258 79.6088C324.258 84.3508 327.914 88.2087 332.41 88.2087C335.59 88.2087 338.5 86.2302 339.82 83.1693C339.963 82.8402 340.308 82.6419 340.657 82.6459C341.018 82.6618 341.331 82.8997 341.446 83.2406C342.592 86.6782 345.681 88.9898 349.13 88.9898C352.5 88.9898 355.565 86.7456 356.755 83.4072C356.885 83.0583 357.215 82.8243 357.579 82.8243Z" fill="#424243"/>
<path d="M390.203 79.236H320.511V91.1625H390.203V79.236Z" fill="#F0F1F1"/>
<path d="M390.203 92.0546H320.511C320.02 92.0546 319.619 91.6541 319.619 91.1625V79.236C319.619 78.7444 320.02 78.3439 320.511 78.3439H390.203C390.694 78.3439 391.095 78.7444 391.095 79.236V91.1625C391.091 91.6581 390.694 92.0546 390.203 92.0546ZM321.403 90.2744H389.31V80.1281H321.403V90.2744Z" fill="#424243"/>
<path d="M353.139 76.5281C352.758 77.4083 351.969 77.9118 351.382 77.6581C350.791 77.4043 350.621 76.4845 351.006 75.6042C351.39 74.724 352.175 74.2205 352.762 74.4743C353.353 74.728 353.519 75.6479 353.139 76.5281Z" fill="#BCD589"/>
<path d="M367.258 74.9183C367.23 75.6042 366.833 76.1474 366.373 76.1276C365.914 76.1078 365.561 75.5368 365.588 74.8509C365.616 74.1649 366.013 73.6218 366.473 73.6416C366.937 73.6614 367.285 74.2324 367.258 74.9183Z" fill="#BCD589"/>
<path d="M385.167 75.291C384.787 76.1712 383.998 76.6748 383.411 76.421C382.82 76.1673 382.65 75.2474 383.034 74.3672C383.415 73.487 384.204 72.9834 384.791 73.2372C385.377 73.4949 385.548 74.4148 385.167 75.291Z" fill="#BCD589"/>
<path d="M336.748 74.724C336.748 75.6835 336.228 76.4567 335.582 76.4567C334.94 76.4567 334.416 75.6795 334.416 74.724C334.416 73.7685 334.936 72.9913 335.582 72.9913C336.228 72.9913 336.748 73.7685 336.748 74.724Z" fill="#BCD589"/>
<path d="M355.518 69.9899C355.68 70.6005 355.482 71.1833 355.074 71.2944C354.665 71.4054 354.197 70.997 354.035 70.3864C353.872 69.7758 354.07 69.1929 354.479 69.0819C354.887 68.9749 355.355 69.3793 355.518 69.9899Z" fill="#AECC62"/>
<path d="M330.027 75.5725C330.047 76.3734 329.543 77.0356 328.901 77.0554C328.259 77.0752 327.72 76.4369 327.7 75.636C327.68 74.835 328.183 74.1729 328.826 74.1531C329.468 74.1372 330.007 74.7716 330.027 75.5725Z" fill="#BCD589"/>
<path d="M442.658 74.724C442.658 79.3867 438.305 83.9147 434.312 83.9147C430.32 83.9147 426.589 79.3867 426.589 74.724C426.589 70.0613 430.316 67.0281 434.312 67.0281C438.309 67.0281 442.658 70.0613 442.658 74.724Z" fill="#BCD589"/>
<path d="M434.308 84.7394C429.915 84.7394 425.76 79.8744 425.76 74.724C425.76 69.3873 430.105 66.1995 434.308 66.1995C438.737 66.1995 443.483 69.6251 443.483 74.724C443.483 79.6881 438.852 84.7394 434.308 84.7394ZM434.308 67.8528C430.918 67.8528 427.409 70.4221 427.409 74.724C427.409 78.9466 430.827 83.09 434.308 83.09C437.964 83.09 441.83 78.792 441.83 74.724C441.834 70.6164 437.944 67.8528 434.308 67.8528Z" fill="#424243"/>
<path d="M423.669 79.9956C426.586 76.9043 426.444 72.0337 423.353 69.1167C420.262 66.1997 415.391 66.341 412.474 69.4322C409.557 72.5235 409.698 77.3941 412.79 80.3111C415.881 83.2281 420.752 83.0869 423.669 79.9956Z" fill="#BCD589"/>
<path d="M418.084 83.3159C417.303 83.3159 416.51 83.2089 415.725 82.9829C411.173 81.6784 408.528 76.9166 409.833 72.3649C411.133 67.8132 415.895 65.1686 420.451 66.469C425.003 67.7735 427.647 72.5354 426.347 77.091C425.264 80.8537 421.819 83.3159 418.084 83.3159ZM418.088 67.9202C415.126 67.9202 412.394 69.8709 411.542 72.8565C410.511 76.4646 412.604 80.2392 416.212 81.274C419.82 82.3049 423.595 80.2114 424.63 76.6034C425.661 72.9953 423.567 69.2207 419.959 68.1858C419.337 68.0035 418.706 67.9202 418.088 67.9202Z" fill="#424243"/>
<path d="M456.425 66.8616C452.773 66.8616 449.692 69.419 448.713 72.92C447.186 71.6711 445.267 70.9177 443.182 70.9177C439.312 70.9177 436.017 73.483 434.74 77.0752C433.46 73.4791 430.169 70.9177 426.299 70.9177C422.643 70.9177 419.507 73.2015 418.088 76.4805C416.855 72.7892 413.516 70.1367 409.579 70.1367C404.595 70.1367 400.559 74.3751 400.559 79.6048C400.559 84.8345 404.599 89.073 409.579 89.073C413.235 89.073 416.371 86.7893 417.79 83.5103C419.023 87.2016 422.362 89.8541 426.299 89.8541C430.169 89.8541 433.464 87.2888 434.74 83.6966C436.021 87.2928 439.312 89.8541 443.182 89.8541C447.519 89.8541 451.139 86.6386 452.004 82.3525C453.272 83.2327 454.791 83.7482 456.425 83.7482C460.869 83.7482 464.469 79.9696 464.469 75.3029C464.469 70.6362 460.865 66.8616 456.425 66.8616Z" fill="#AECC62"/>
<path d="M443.178 90.7224C439.704 90.7224 436.509 88.7836 434.736 85.7504C432.964 88.7875 429.764 90.7224 426.295 90.7224C422.703 90.7224 419.436 88.6805 417.703 85.4848C415.875 88.2404 412.846 89.9413 409.579 89.9413C404.127 89.9413 399.691 85.3024 399.691 79.6048C399.691 73.9033 404.127 69.2683 409.579 69.2683C413.175 69.2683 416.438 71.3102 418.175 74.502C420.003 71.7464 423.032 70.0454 426.299 70.0454C429.772 70.0454 432.968 71.9803 434.74 75.0174C436.513 71.9803 439.712 70.0454 443.182 70.0454C445.002 70.0454 446.742 70.5569 448.281 71.5283C449.692 68.2136 452.892 65.9854 456.428 65.9854C461.345 65.9854 465.342 70.1644 465.342 75.2989C465.342 80.4335 461.345 84.6125 456.428 84.6125C455.076 84.6125 453.76 84.2953 452.555 83.6847C451.211 87.832 447.44 90.7224 443.178 90.7224ZM434.736 82.8243C435.105 82.8243 435.434 83.0543 435.557 83.4032C436.747 86.7416 439.808 88.9858 443.182 88.9858C447.004 88.9858 450.358 86.1231 451.151 82.182C451.211 81.8965 451.409 81.6547 451.679 81.5476C451.948 81.4366 452.257 81.4723 452.499 81.6388C453.669 82.4476 455.029 82.8798 456.425 82.8798C460.381 82.8798 463.601 79.4819 463.601 75.3069C463.601 71.1318 460.381 67.7339 456.425 67.7339C453.272 67.7339 450.445 69.9622 449.549 73.1539C449.47 73.4354 449.256 73.6614 448.974 73.7487C448.697 73.8359 448.388 73.7804 448.162 73.594C446.718 72.4125 444.994 71.79 443.178 71.79C439.808 71.79 436.743 74.0341 435.553 77.3686C435.43 77.7175 435.101 77.9475 434.733 77.9475C434.364 77.9475 434.035 77.7175 433.912 77.3686C432.722 74.0302 429.661 71.79 426.287 71.79C423.107 71.79 420.197 73.7685 418.877 76.8294C418.734 77.1585 418.393 77.3567 418.04 77.3527C417.679 77.3369 417.366 77.099 417.251 76.758C416.105 73.3204 413.017 71.0089 409.567 71.0089C405.071 71.0089 401.415 74.8667 401.415 79.6088C401.415 84.3508 405.071 88.2087 409.567 88.2087C412.747 88.2087 415.657 86.2302 416.982 83.1693C417.124 82.8402 417.473 82.6419 417.818 82.6459C418.179 82.6618 418.492 82.8997 418.607 83.2406C419.753 86.6782 422.842 88.9898 426.291 88.9898C429.661 88.9898 432.726 86.7456 433.916 83.4072C434.039 83.0583 434.368 82.8243 434.736 82.8243Z" fill="#424243"/>
<path d="M467.356 79.236H397.665V91.1625H467.356V79.236Z" fill="#F0F1F1"/>
<path d="M467.356 92.0546H397.665C397.173 92.0546 396.772 91.6541 396.772 91.1625V79.236C396.772 78.7444 397.173 78.3439 397.665 78.3439H467.356C467.847 78.3439 468.248 78.7444 468.248 79.236V91.1625C468.248 91.6581 467.847 92.0546 467.356 92.0546ZM398.557 90.2744H466.464V80.1281H398.557V90.2744Z" fill="#424243"/>
<path d="M430.296 76.5281C429.915 77.4083 429.126 77.9118 428.539 77.6581C427.949 77.4043 427.778 76.4845 428.163 75.6042C428.547 74.724 429.332 74.2205 429.919 74.4743C430.506 74.728 430.676 75.6479 430.296 76.5281Z" fill="#BCD589"/>
<path d="M444.415 74.9183C444.387 75.6042 443.991 76.1474 443.531 76.1276C443.071 76.1078 442.718 75.5368 442.746 74.8509C442.773 74.1649 443.17 73.6218 443.63 73.6416C444.09 73.6614 444.443 74.2324 444.415 74.9183Z" fill="#BCD589"/>
<path d="M462.32 75.291C461.94 76.1712 461.151 76.6748 460.564 76.421C459.973 76.1673 459.803 75.2474 460.187 74.3672C460.568 73.487 461.357 72.9834 461.944 73.2372C462.534 73.4949 462.705 74.4148 462.32 75.291Z" fill="#BCD589"/>
<path d="M413.905 74.724C413.905 75.6835 413.385 76.4567 412.739 76.4567C412.097 76.4567 411.573 75.6795 411.573 74.724C411.573 73.7685 412.093 72.9913 412.739 72.9913C413.381 72.9913 413.905 73.7685 413.905 74.724Z" fill="#BCD589"/>
<path d="M432.671 69.9899C432.833 70.6005 432.635 71.1833 432.227 71.2944C431.818 71.4054 431.35 70.997 431.188 70.3864C431.025 69.7758 431.224 69.1929 431.632 69.0819C432.044 68.9749 432.508 69.3793 432.671 69.9899Z" fill="#AECC62"/>
<path d="M407.184 75.5725C407.204 76.3734 406.701 77.0356 406.058 77.0554C405.416 77.0752 404.877 76.4369 404.857 75.636C404.837 74.835 405.341 74.1729 405.983 74.1531C406.625 74.1372 407.16 74.7716 407.184 75.5725Z" fill="#BCD589"/>
<path d="M460.021 178.632C459.747 178.632 459.525 178.287 459.525 177.859V149.585C459.525 149.157 459.747 148.812 460.021 148.812C460.294 148.812 460.516 149.157 460.516 149.585V177.859C460.516 178.287 460.294 178.632 460.021 178.632Z" fill="#424243"/>
<path d="M460.619 164.957C460.619 164.957 468.065 165.068 468.712 157.65C468.716 157.65 461.718 158.158 460.619 164.957Z" fill="#BCD589"/>
<path d="M460.619 165.675C460.615 165.675 460.611 165.675 460.611 165.675C460.401 165.671 460.203 165.58 460.072 165.417C459.937 165.259 459.882 165.049 459.914 164.842C461.087 157.563 468.589 156.94 468.664 156.932C468.882 156.917 469.081 156.996 469.227 157.143C469.374 157.293 469.449 157.499 469.429 157.71C468.743 165.576 460.941 165.675 460.619 165.675ZM467.875 158.506C466.186 158.863 462.61 160.085 461.519 164.18C463.272 163.958 467.043 162.967 467.875 158.506Z" fill="#424243"/>
<path d="M453.78 163.621C453.78 163.621 453.546 169.866 459.755 170.552C459.755 170.552 459.466 164.672 453.78 163.621Z" fill="#BCD589"/>
<path d="M459.755 171.155C459.731 171.155 459.711 171.155 459.688 171.151C452.999 170.413 453.173 163.665 453.177 163.597C453.185 163.423 453.265 163.26 453.403 163.149C453.538 163.038 453.717 162.999 453.891 163.026C459.977 164.149 460.358 170.457 460.358 170.52C460.366 170.695 460.298 170.869 460.167 170.988C460.056 171.099 459.906 171.155 459.755 171.155ZM454.414 164.39C454.565 165.865 455.322 169.049 459.053 169.83C458.788 168.407 457.828 165.386 454.414 164.39Z" fill="#424243"/>
<path d="M452.828 152.401C452.828 152.401 452.559 159.549 459.668 160.334C459.668 160.334 459.335 153.602 452.828 152.401Z" fill="#BCD589"/>
<path d="M459.668 161.024C459.644 161.024 459.616 161.024 459.593 161.02C451.936 160.176 452.135 152.452 452.138 152.377C452.146 152.175 452.242 151.988 452.396 151.865C452.551 151.738 452.757 151.691 452.951 151.727C459.914 153.011 460.35 160.231 460.354 160.303C460.366 160.505 460.282 160.699 460.136 160.838C460.013 160.957 459.842 161.024 459.668 161.024ZM453.558 153.281C453.728 154.966 454.601 158.61 458.867 159.51C458.562 157.876 457.463 154.415 453.558 153.281Z" fill="#424243"/>
<path d="M460.017 153.503C460.017 153.503 463.68 148.911 459.366 144.931C459.366 144.931 456.302 149.538 460.017 153.503Z" fill="#BCD589"/>
<path d="M460.017 154.07C459.862 154.07 459.711 154.006 459.604 153.891C455.632 149.649 458.863 144.669 458.899 144.617C458.99 144.479 459.137 144.387 459.303 144.368C459.47 144.344 459.632 144.403 459.755 144.514C464.398 148.804 460.504 153.808 460.461 153.856C460.358 153.983 460.207 154.062 460.041 154.07C460.029 154.07 460.021 154.07 460.017 154.07ZM459.493 145.866C458.899 147.092 457.935 149.915 459.961 152.567C460.671 151.37 461.876 148.539 459.493 145.866Z" fill="#424243"/>
<path d="M460.128 155.101C460.128 155.101 465.968 154.498 465.79 148.63C465.79 148.626 460.354 149.673 460.128 155.101Z" fill="#BCD589"/>
<path d="M460.128 155.664C459.985 155.664 459.846 155.608 459.739 155.509C459.62 155.398 459.553 155.235 459.561 155.073C459.803 149.264 465.623 148.079 465.679 148.071C465.841 148.039 466.012 148.083 466.139 148.186C466.269 148.289 466.345 148.444 466.353 148.61C466.547 154.93 460.247 155.656 460.183 155.664C460.167 155.664 460.148 155.664 460.128 155.664ZM465.211 149.375C463.922 149.811 461.234 151.1 460.762 154.407C462.11 154.074 464.973 152.948 465.211 149.375Z" fill="#424243"/>
<path d="M465.932 175.897H454.894V187.359H465.932V175.897Z" fill="#F0F1F1"/>
<path d="M465.932 186.907C462.713 186.907 459.493 186.907 456.27 186.907C455.81 186.907 455.35 186.907 454.89 186.907C454.997 187.058 455.104 187.209 455.211 187.359C455.211 183.537 455.211 179.719 455.211 175.897C455.104 176.047 454.997 176.198 454.89 176.349C458.11 176.349 461.329 176.349 464.553 176.349C465.013 176.349 465.472 176.349 465.932 176.349C465.825 176.198 465.718 176.047 465.611 175.897C465.611 179.719 465.611 183.537 465.611 187.359C465.611 187.942 466.254 187.942 466.254 187.359C466.254 183.537 466.254 179.719 466.254 175.897C466.254 175.651 466.107 175.445 465.932 175.445C462.713 175.445 459.493 175.445 456.27 175.445C455.81 175.445 455.35 175.445 454.89 175.445C454.716 175.445 454.569 175.651 454.569 175.897C454.569 179.719 454.569 183.537 454.569 187.359C454.569 187.605 454.716 187.811 454.89 187.811C458.11 187.811 461.329 187.811 464.553 187.811C465.013 187.811 465.472 187.811 465.932 187.811C466.345 187.811 466.345 186.907 465.932 186.907Z" fill="#424243"/>
<path d="M467.28 173.676H453.542V175.916H467.28V173.676Z" fill="#F0F1F1"/>
<path d="M467.28 175.468C463.272 175.468 459.259 175.468 455.251 175.468C454.68 175.468 454.113 175.468 453.542 175.468C453.649 175.619 453.756 175.77 453.863 175.92C453.863 175.175 453.863 174.426 453.863 173.68C453.756 173.831 453.649 173.982 453.542 174.132C457.551 174.132 461.563 174.132 465.572 174.132C466.142 174.132 466.709 174.132 467.28 174.132C467.173 173.982 467.066 173.831 466.959 173.68C466.959 174.426 466.959 175.175 466.959 175.92C466.959 176.503 467.602 176.503 467.602 175.92C467.602 175.175 467.602 174.426 467.602 173.68C467.602 173.434 467.455 173.228 467.28 173.228C463.272 173.228 459.259 173.228 455.251 173.228C454.68 173.228 454.113 173.228 453.542 173.228C453.368 173.228 453.221 173.434 453.221 173.68C453.221 174.426 453.221 175.175 453.221 175.92C453.221 176.166 453.368 176.372 453.542 176.372C457.551 176.372 461.563 176.372 465.572 176.372C466.142 176.372 466.709 176.372 467.28 176.372C467.697 176.372 467.697 175.468 467.28 175.468Z" fill="#424243"/>
<g opacity="0.48">
<g opacity="0.48">
<g opacity="0.48">
<g opacity="0.48">
<g opacity="0.48">
<path opacity="0.48" d="M201.402 219.71H152.494C151.777 219.71 151.19 219.123 151.19 218.405V217.374C151.19 216.657 151.777 216.07 152.494 216.07H201.402C202.119 216.07 202.706 216.657 202.706 217.374V218.405C202.706 219.123 202.119 219.71 201.402 219.71Z" fill="#424243"/>
</g>
</g>
</g>
</g>
</g>
<path d="M299.898 73.9714H153.16V188.696H299.898V73.9714Z" fill="white"/>
<path d="M299.898 112.562H153.16V188.696H299.898V112.562Z" fill="white"/>
<path d="M301.444 74.1777C301.44 74.1103 301.444 74.0429 301.444 73.9755C301.444 73.1587 300.734 72.4688 299.894 72.4688C295.017 72.4688 290.14 72.4688 285.263 72.4688C273.555 72.4688 261.847 72.4688 250.138 72.4688C236.035 72.4688 221.932 72.4688 207.829 72.4688C195.637 72.4688 183.444 72.4688 171.252 72.4688C165.321 72.4688 159.334 72.2309 153.406 72.4688C153.323 72.4728 153.24 72.4688 153.16 72.4688C152.324 72.4688 151.61 73.1587 151.61 73.9755C151.61 77.7818 151.61 81.5841 151.61 85.3905C151.61 94.5296 151.61 103.665 151.61 112.804C151.61 123.858 151.61 134.908 151.61 145.962C151.61 155.478 151.61 164.994 151.61 174.514C151.61 179.161 151.396 183.859 151.61 188.502C151.614 188.569 151.61 188.637 151.61 188.704C151.61 189.521 152.32 190.211 153.16 190.211C158.037 190.211 162.914 190.211 167.791 190.211C179.499 190.211 191.208 190.211 202.916 190.211C217.019 190.211 231.122 190.211 245.226 190.211C257.418 190.211 269.61 190.211 281.802 190.211C287.733 190.211 293.72 190.449 299.648 190.211C299.731 190.207 299.815 190.211 299.894 190.211C300.35 190.211 300.695 190.048 300.941 189.806C300.96 189.791 300.976 189.775 300.992 189.759C301 189.747 301.012 189.739 301.02 189.731C301.274 189.489 301.44 189.152 301.44 188.704C301.44 184.898 301.44 181.095 301.44 177.289C301.44 168.15 301.44 159.015 301.44 149.876C301.44 138.822 301.44 127.771 301.44 116.717C301.44 107.201 301.44 97.6856 301.44 88.1699C301.444 83.519 301.658 78.8166 301.444 74.1777ZM285.263 187.19C273.555 187.19 261.847 187.19 250.138 187.19C236.035 187.19 221.932 187.19 207.829 187.19C195.637 187.19 183.444 187.19 171.252 187.19C167.216 187.19 163.184 187.19 159.147 187.19C157.744 187.19 156.182 187.027 154.707 187.075C154.707 183.811 154.707 180.544 154.707 177.281C154.707 168.142 154.707 159.007 154.707 149.868C154.707 138.814 154.707 127.763 154.707 116.709C154.707 107.193 154.707 97.6777 154.707 88.1619C154.707 84.994 154.707 81.826 154.707 78.658C154.707 77.6629 154.83 76.5447 154.818 75.4822C159.144 75.4822 163.465 75.4822 167.791 75.4822C179.499 75.4822 191.208 75.4822 202.916 75.4822C217.019 75.4822 231.122 75.4822 245.226 75.4822C257.418 75.4822 269.61 75.4822 281.802 75.4822C285.838 75.4822 289.871 75.4822 293.907 75.4822C295.31 75.4822 296.873 75.6447 298.348 75.5971C298.348 78.8602 298.348 82.1273 298.348 85.3905C298.348 94.5296 298.348 103.665 298.348 112.804C298.348 123.858 298.348 134.908 298.348 145.962C298.348 155.478 298.348 164.994 298.348 174.514C298.348 178.724 298.173 182.979 298.3 187.197C293.954 187.19 289.609 187.19 285.263 187.19Z" fill="#424243"/>
<path d="M310.916 188.696H141.912V196.86H310.916V188.696Z" fill="#F0F1F1"/>
<path d="M143.462 196.86C143.462 194.14 143.462 191.416 143.462 188.696C142.947 189.2 142.431 189.699 141.912 190.203C147.522 190.203 153.133 190.203 158.743 190.203C172.212 190.203 185.685 190.203 199.153 190.203C215.441 190.203 231.733 190.203 248.021 190.203C262.053 190.203 276.088 190.203 290.12 190.203C294.759 190.203 299.398 190.203 304.037 190.203C306.15 190.203 308.517 190.496 310.619 190.203C310.714 190.191 310.821 190.203 310.916 190.203C310.401 189.699 309.885 189.2 309.366 188.696C309.366 191.416 309.366 194.14 309.366 196.86C309.366 198.799 312.463 198.803 312.463 196.86C312.463 194.14 312.463 191.416 312.463 188.696C312.463 187.879 311.753 187.19 310.912 187.19C305.302 187.19 299.692 187.19 294.081 187.19C280.612 187.19 267.14 187.19 253.671 187.19C237.383 187.19 221.091 187.19 204.803 187.19C190.772 187.19 176.736 187.19 162.704 187.19C155.888 187.19 149.017 186.948 142.205 187.19C142.106 187.193 142.007 187.19 141.908 187.19C141.071 187.19 140.358 187.879 140.358 188.696C140.358 191.416 140.358 194.14 140.358 196.86C140.366 198.803 143.462 198.803 143.462 196.86Z" fill="#424243"/>
<g opacity="0.48">
<g opacity="0.48">
<g opacity="0.48">
<g opacity="0.48">
<g opacity="0.48">
<g opacity="0.48">
<path opacity="0.48" d="M217.737 204.778H141.88C141.242 204.778 140.719 204.27 140.719 203.648V203.426C140.719 202.803 141.242 202.296 141.88 202.296H217.733C218.371 202.296 218.895 202.803 218.895 203.426V203.648C218.899 204.27 218.375 204.778 217.737 204.778Z" fill="#424243"/>
</g>
</g>
</g>
</g>
</g>
</g>
<g opacity="0.48">
<g opacity="0.48">
<g opacity="0.48">
<g opacity="0.48">
<g opacity="0.48">
<g opacity="0.48">
<path opacity="0.48" d="M299.501 210.46H208.693C208.011 210.46 207.456 209.916 207.456 209.254V208.43C207.456 207.767 208.015 207.224 208.693 207.224H299.501C300.183 207.224 300.738 207.767 300.738 208.43V209.254C300.738 209.916 300.179 210.46 299.501 210.46Z" fill="#424243"/>
</g>
</g>
</g>
</g>
</g>
</g>
<g opacity="0.48">
<g opacity="0.48">
<g opacity="0.48">
<g opacity="0.48">
<g opacity="0.48">
<g opacity="0.48">
<path opacity="0.48" d="M309.679 210.46H304.679C303.998 210.46 303.442 209.916 303.442 209.254V208.43C303.442 207.767 304.001 207.224 304.679 207.224H309.679C310.361 207.224 310.916 207.767 310.916 208.43V209.254C310.92 209.916 310.361 210.46 309.679 210.46Z" fill="#424243"/>
</g>
</g>
</g>
</g>
</g>
</g>
<path d="M307.871 70.2088H145.231V77.7382H307.871V70.2088Z" fill="white"/>
<path d="M309.005 69.1898C308.989 69.17 308.973 69.1541 308.958 69.1383C308.946 69.1304 308.938 69.1185 308.926 69.1105C308.68 68.8647 308.331 68.7022 307.871 68.7022C302.467 68.7022 297.067 68.7022 291.663 68.7022C278.693 68.7022 265.724 68.7022 252.751 68.7022C237.121 68.7022 221.488 68.7022 205.854 68.7022C192.338 68.7022 178.821 68.7022 165.301 68.7022C158.719 68.7022 152.082 68.4563 145.504 68.7022C145.413 68.7061 145.318 68.7022 145.227 68.7022C144.39 68.7022 143.676 69.392 143.676 70.2088C143.676 72.7186 143.676 75.2284 143.676 77.7382C143.676 78.5549 144.386 79.2448 145.227 79.2448C150.631 79.2448 156.031 79.2448 161.435 79.2448C174.404 79.2448 187.374 79.2448 200.347 79.2448C215.977 79.2448 231.61 79.2448 247.244 79.2448C260.76 79.2448 274.277 79.2448 287.797 79.2448C294.379 79.2448 301.016 79.4907 307.594 79.2448C307.685 79.2409 307.78 79.2448 307.871 79.2448C308.708 79.2448 309.422 78.5549 309.422 77.7382C309.422 75.2284 309.422 72.7186 309.422 70.2088C309.418 69.7647 309.251 69.4277 309.005 69.1898ZM291.663 76.2275C278.693 76.2275 265.724 76.2275 252.751 76.2275C237.121 76.2275 221.488 76.2275 205.854 76.2275C192.338 76.2275 178.821 76.2275 165.301 76.2275C160.829 76.2275 156.352 76.2275 151.88 76.2275C150.254 76.2275 148.462 76.0451 146.773 76.1165C146.773 74.6495 146.773 73.1825 146.773 71.7155C151.658 71.7155 156.547 71.7155 161.431 71.7155C174.4 71.7155 187.37 71.7155 200.343 71.7155C215.973 71.7155 231.606 71.7155 247.24 71.7155C260.756 71.7155 274.273 71.7155 287.793 71.7155C293.95 71.7155 300.16 71.9256 306.321 71.7512C306.321 73.242 306.321 74.7367 306.321 76.2275C301.432 76.2275 296.547 76.2275 291.663 76.2275Z" fill="#424243"/>
<path d="M184.122 118.101H161.899V187.622H184.122V118.101Z" fill="white"/>
<path d="M184.126 186.258C177.644 186.258 171.161 186.258 164.679 186.258C163.755 186.258 162.827 186.258 161.903 186.258C162.335 186.714 162.763 187.17 163.196 187.626C163.196 179.799 163.196 171.972 163.196 164.145C163.196 151.668 163.196 139.19 163.196 126.709C163.196 123.838 163.196 120.972 163.196 118.101C162.763 118.557 162.335 119.013 161.903 119.469C168.386 119.469 174.868 119.469 181.351 119.469C182.275 119.469 183.203 119.469 184.126 119.469C183.694 119.013 183.262 118.557 182.834 118.101C182.834 125.928 182.834 133.754 182.834 141.581C182.834 154.059 182.834 166.536 182.834 179.018C182.834 181.888 182.834 184.755 182.834 187.626C182.834 189.386 185.423 189.39 185.423 187.626C185.423 179.799 185.423 171.972 185.423 164.145C185.423 151.668 185.423 139.19 185.423 126.709C185.423 123.838 185.423 120.972 185.423 118.101C185.423 117.363 184.832 116.733 184.13 116.733C177.648 116.733 171.165 116.733 164.683 116.733C163.759 116.733 162.831 116.733 161.907 116.733C161.209 116.733 160.615 117.359 160.615 118.101C160.615 125.928 160.615 133.754 160.615 141.581C160.615 154.059 160.615 166.536 160.615 179.018C160.615 181.888 160.615 184.755 160.615 187.626C160.615 188.363 161.205 188.994 161.907 188.994C168.39 188.994 174.872 188.994 181.355 188.994C182.279 188.994 183.207 188.994 184.13 188.994C185.792 188.994 185.792 186.258 184.126 186.258Z" fill="#424243"/>
<path d="M206.54 118.101H184.317V187.622H206.54V118.101Z" fill="white"/>
<path d="M206.54 186.258C200.057 186.258 193.575 186.258 187.092 186.258C186.168 186.258 185.241 186.258 184.317 186.258C184.749 186.714 185.181 187.17 185.609 187.626C185.609 179.799 185.609 171.972 185.609 164.145C185.609 151.668 185.609 139.19 185.609 126.709C185.609 123.838 185.609 120.972 185.609 118.101C185.177 118.557 184.749 119.013 184.317 119.469C190.799 119.469 197.282 119.469 203.765 119.469C204.688 119.469 205.616 119.469 206.54 119.469C206.108 119.013 205.68 118.557 205.247 118.101C205.247 125.928 205.247 133.754 205.247 141.581C205.247 154.059 205.247 166.536 205.247 179.018C205.247 181.888 205.247 184.755 205.247 187.626C205.247 189.386 207.837 189.39 207.837 187.626C207.837 179.799 207.837 171.972 207.837 164.145C207.837 151.668 207.837 139.19 207.837 126.709C207.837 123.838 207.837 120.972 207.837 118.101C207.837 117.363 207.246 116.733 206.544 116.733C200.061 116.733 193.579 116.733 187.096 116.733C186.172 116.733 185.245 116.733 184.321 116.733C183.623 116.733 183.028 117.359 183.028 118.101C183.028 125.928 183.028 133.754 183.028 141.581C183.028 154.059 183.028 166.536 183.028 179.018C183.028 181.888 183.028 184.755 183.028 187.626C183.028 188.363 183.619 188.994 184.321 188.994C190.803 188.994 197.286 188.994 203.769 188.994C204.692 188.994 205.62 188.994 206.544 188.994C208.205 188.994 208.209 186.258 206.54 186.258Z" fill="#424243"/>
<path d="M160.92 169.625C160.92 184.918 158.017 197.312 154.433 197.312C150.849 197.312 147.947 184.918 147.947 169.625C147.947 151.846 154.433 141.938 154.433 141.938C154.433 141.938 160.92 151.64 160.92 169.625Z" fill="#618247"/>
<path d="M154.433 197.962C149.763 197.962 147.245 183.363 147.245 169.625C147.245 151.866 153.565 142.013 153.834 141.601L154.429 140.693L155.032 141.597C155.302 142.001 161.626 151.664 161.626 169.625C161.622 183.359 159.104 197.962 154.433 197.962ZM154.437 143.314C152.851 146.276 148.648 155.462 148.648 169.625C148.648 186.377 152.019 196.662 154.433 196.662C156.848 196.662 160.218 186.377 160.218 169.625C160.218 155.324 156.027 146.244 154.437 143.314Z" fill="#424243"/>
<path d="M154.433 193.438C154.045 193.438 153.731 193.149 153.731 192.788V155.066C153.731 154.705 154.045 154.416 154.433 154.416C154.822 154.416 155.135 154.705 155.135 155.066V192.788C155.135 193.149 154.822 193.438 154.433 193.438Z" fill="#424243"/>
<path d="M167.105 171.389C167.105 181.095 164.889 188.966 162.157 188.966C159.425 188.966 157.209 181.095 157.209 171.389C157.209 160.101 162.157 153.813 162.157 153.813C162.157 153.813 167.105 159.97 167.105 171.389Z" fill="#BCD589"/>
<path d="M162.157 189.378C158.596 189.378 156.673 180.108 156.673 171.389C156.673 160.117 161.495 153.857 161.701 153.599L162.153 153.024L162.613 153.599C162.819 153.853 167.64 159.99 167.64 171.393C167.64 180.108 165.717 189.378 162.157 189.378ZM162.161 154.685C160.952 156.565 157.744 162.401 157.744 171.389C157.744 182.023 160.313 188.553 162.157 188.553C164.001 188.553 166.57 182.023 166.57 171.389C166.57 162.31 163.374 156.545 162.161 154.685Z" fill="#424243"/>
<path d="M162.157 186.508C161.859 186.508 161.622 186.321 161.622 186.095V162.147C161.622 161.917 161.859 161.735 162.157 161.735C162.454 161.735 162.692 161.921 162.692 162.147V186.095C162.692 186.321 162.454 186.508 162.157 186.508Z" fill="#424243"/>
<path d="M165.21 201.511H148.787L146.349 180.54H166.998L165.21 201.511Z" fill="#F0F1F1"/>
<path d="M165.579 201.911H148.43L145.897 180.136H167.434L165.579 201.911ZM149.148 201.106H164.841L166.562 180.945H146.805L149.148 201.106Z" fill="#424243"/>
<path d="M165.21 202.161H148.791C148.462 202.161 148.185 201.915 148.145 201.586L145.706 180.62C145.687 180.437 145.742 180.251 145.865 180.112C145.988 179.973 146.166 179.894 146.353 179.894H167.002C167.184 179.894 167.359 179.969 167.482 180.104C167.605 180.239 167.668 180.417 167.652 180.6L165.864 201.566C165.828 201.899 165.547 202.161 165.21 202.161ZM149.366 200.86H164.611L166.288 181.195H147.078L149.366 200.86Z" fill="#424243"/>
<path d="M169.845 177.777H143.506V180.822H169.845V177.777Z" fill="#F0F1F1"/>
<path d="M170.245 181.226H143.101V177.372H170.245V181.226ZM143.906 180.421H169.44V178.181H143.906V180.421Z" fill="#424243"/>
<path d="M169.841 181.476H143.502C143.141 181.476 142.852 181.187 142.852 180.826V177.777C142.852 177.416 143.141 177.127 143.502 177.127H169.841C170.202 177.127 170.491 177.416 170.491 177.777V180.826C170.491 181.187 170.202 181.476 169.841 181.476ZM144.156 180.176H169.195V178.431H144.156V180.176Z" fill="#424243"/>
<g opacity="0.48">
<g opacity="0.48">
<g opacity="0.48">
<g opacity="0.48">
<g opacity="0.48">
<path opacity="0.48" d="M48.5345 212.333H9.67041C9.09154 212.333 8.61971 211.861 8.61971 211.282V210.414C8.61971 209.835 9.09154 209.363 9.67041 209.363H48.5384C49.1173 209.363 49.5891 209.835 49.5891 210.414V211.282C49.5852 211.857 49.1133 212.333 48.5345 212.333Z" fill="#424243"/>
</g>
</g>
</g>
</g>
</g>
<path d="M126.794 187.251H10.0947V57.7889L126.794 70.0008V187.251Z" fill="white"/>
<path d="M126.794 188.207H10.0947C9.56733 188.207 9.14308 187.778 9.14308 187.255V57.7889C9.14308 57.5193 9.25806 57.2616 9.45631 57.0831C9.65852 56.9008 9.92417 56.8215 10.1938 56.8413L126.893 69.0532C127.377 69.1047 127.745 69.5131 127.745 70.0008V187.251C127.745 187.778 127.317 188.207 126.794 188.207ZM11.0462 186.3H125.838V70.8612L11.0462 58.8475V186.3Z" fill="#424243"/>
<path d="M135.414 186.997H1.00709V193.666H135.414V186.997Z" fill="#F0F1F1"/>
<path d="M2.47014 193.666C2.47014 191.442 2.47014 189.222 2.47014 186.997C2.05779 187.41 1.6494 187.818 1.23705 188.23C5.69757 188.23 10.1621 188.23 14.6226 188.23C25.3358 188.23 36.049 188.23 46.7621 188.23C59.7155 188.23 72.6728 188.23 85.6262 188.23C96.7874 188.23 107.949 188.23 119.106 188.23C122.797 188.23 126.485 188.23 130.176 188.23C131.857 188.23 133.74 188.468 135.41 188.23C135.485 188.219 135.568 188.23 135.647 188.23C135.235 187.818 134.827 187.41 134.414 186.997C134.414 189.222 134.414 191.442 134.414 193.666C134.414 195.252 136.877 195.252 136.877 193.666C136.877 191.442 136.877 189.222 136.877 186.997C136.877 186.331 136.314 185.764 135.644 185.764C131.183 185.764 126.719 185.764 122.258 185.764C111.545 185.764 100.832 185.764 90.1184 185.764C77.1651 185.764 64.2077 185.764 51.2544 185.764C40.0932 185.764 28.9319 185.764 17.7747 185.764C12.3547 185.764 6.89101 185.566 1.47098 185.764C1.39168 185.768 1.31238 185.764 1.23309 185.764C0.566982 185.764 0 186.327 0 186.997C0 189.222 0 191.442 0 193.666C0.00792982 195.252 2.47014 195.256 2.47014 193.666Z" fill="#424243"/>
<g opacity="0.48">
<g opacity="0.48">
<g opacity="0.48">
<g opacity="0.48">
<g opacity="0.48">
<g opacity="0.48">
<path opacity="0.48" d="M61.5394 200.137H1.21723C0.709719 200.137 0.293404 199.721 0.293404 199.213V199.035C0.293404 198.527 0.709719 198.111 1.21723 198.111H61.5433C62.0508 198.111 62.4672 198.527 62.4672 199.035V199.213C62.4632 199.721 62.0508 200.137 61.5394 200.137Z" fill="#424243"/>
</g>
</g>
</g>
</g>
</g>
</g>
<g opacity="0.48">
<g opacity="0.48">
<g opacity="0.48">
<g opacity="0.48">
<g opacity="0.48">
<g opacity="0.48">
<path opacity="0.48" d="M126.568 204.776H54.351C53.8078 204.776 53.3677 204.332 53.3677 203.793V203.119C53.3677 202.576 53.8117 202.131 54.351 202.131H126.568C127.111 202.131 127.551 202.576 127.551 203.119V203.793C127.551 204.332 127.107 204.776 126.568 204.776Z" fill="#424243"/>
</g>
</g>
</g>
</g>
</g>
</g>
<g opacity="0.48">
<g opacity="0.48">
<g opacity="0.48">
<g opacity="0.48">
<g opacity="0.48">
<g opacity="0.48">
<path opacity="0.48" d="M134.664 204.776H130.687C130.144 204.776 129.704 204.332 129.704 203.793V203.119C129.704 202.576 130.148 202.131 130.687 202.131H134.664C135.207 202.131 135.647 202.576 135.647 203.119V203.793C135.647 204.332 135.203 204.776 134.664 204.776Z" fill="#424243"/>
</g>
</g>
</g>
</g>
</g>
</g>
<path d="M5.23856 54.3642L4.51167 60.4707L132.804 75.7417L133.531 69.6352L5.23856 54.3642Z" fill="white"/>
<path d="M133.673 68.4109C129.403 67.9034 125.129 67.3959 120.858 66.8844C110.645 65.6672 100.435 64.4539 90.2215 63.2367C77.8748 61.7657 65.532 60.2987 53.1853 58.8277C42.5157 57.559 31.8422 56.2862 21.1726 55.0175C15.9984 54.4029 10.8004 53.5822 5.60638 53.1659C5.53105 53.1619 5.45968 53.15 5.38435 53.1381C4.72221 53.0588 4.09575 53.5544 4.01645 54.2165C3.77459 56.2505 3.53274 58.2885 3.29088 60.3225C3.21158 60.9847 3.70719 61.6111 4.36933 61.6904C8.63954 62.1979 12.9137 62.7054 17.1839 63.2169C27.3975 64.4341 37.6072 65.6474 47.8208 66.8646C60.1675 68.3356 72.5103 69.8026 84.857 71.2736C95.5266 72.5424 106.2 73.8151 116.87 75.0839C122.044 75.6984 127.242 76.5192 132.436 76.9355C132.511 76.9434 132.583 76.9514 132.658 76.9633C133.32 77.0426 133.947 76.5469 134.026 75.8848C134.268 73.8508 134.51 71.8128 134.751 69.7788C134.938 68.2047 132.491 67.9114 132.305 69.4894C132.063 71.5234 131.821 73.5614 131.579 75.5954C132.035 75.2345 132.491 74.8777 132.947 74.5169C128.677 74.0094 124.403 73.5019 120.133 72.9904C109.919 71.7732 99.7095 70.5599 89.4959 69.3427C77.1492 67.8717 64.8064 66.4047 52.4597 64.9337C41.7901 63.6649 31.1166 62.3922 20.447 61.1234C16.9381 60.7071 13.4291 60.2868 9.9202 59.8705C8.30649 59.6802 6.51038 59.2203 4.8808 59.2718C4.80944 59.2758 4.73014 59.256 4.65877 59.2441C5.01958 59.7 5.37642 60.156 5.73723 60.6119C5.97908 58.5779 6.22094 56.54 6.4628 54.506C6.00684 54.8668 5.55087 55.2236 5.09491 55.5844C9.36512 56.092 13.6393 56.5995 17.9095 57.111C28.1231 58.3282 38.3328 59.5414 48.5464 60.7586C60.8931 62.2296 73.2358 63.6967 85.5826 65.1676C96.2521 66.4364 106.926 67.7092 117.595 68.9779C122.769 69.5925 127.967 70.4132 133.161 70.8295C133.237 70.8335 133.308 70.8454 133.384 70.8573C134.954 71.0436 135.247 68.5973 133.673 68.4109Z" fill="#424243"/>
<path d="M115.708 123.959H94.5472V186.585H115.708V123.959Z" fill="white"/>
<path d="M115.708 185.352C109.535 185.352 103.361 185.352 97.1918 185.352C96.3116 185.352 95.4314 185.352 94.5472 185.352C94.9596 185.764 95.368 186.173 95.7803 186.585C95.7803 179.535 95.7803 172.486 95.7803 165.436C95.7803 154.196 95.7803 142.955 95.7803 131.715C95.7803 129.129 95.7803 126.544 95.7803 123.963C95.368 124.376 94.9596 124.784 94.5472 125.196C100.721 125.196 106.894 125.196 113.063 125.196C113.944 125.196 114.824 125.196 115.708 125.196C115.296 124.784 114.887 124.376 114.475 123.963C114.475 131.013 114.475 138.062 114.475 145.112C114.475 156.353 114.475 167.593 114.475 178.834C114.475 181.419 114.475 184.004 114.475 186.585C114.475 188.171 116.937 188.171 116.937 186.585C116.937 179.535 116.937 172.486 116.937 165.436C116.937 154.196 116.937 142.955 116.937 131.715C116.937 129.129 116.937 126.544 116.937 123.963C116.937 123.297 116.374 122.73 115.704 122.73C109.531 122.73 103.357 122.73 97.1879 122.73C96.3076 122.73 95.4274 122.73 94.5433 122.73C93.8772 122.73 93.3102 123.293 93.3102 123.963C93.3102 131.013 93.3102 138.062 93.3102 145.112C93.3102 156.353 93.3102 167.593 93.3102 178.834C93.3102 181.419 93.3102 184.004 93.3102 186.585C93.3102 187.251 93.8732 187.818 94.5433 187.818C100.717 187.818 106.89 187.818 113.059 187.818C113.94 187.818 114.82 187.818 115.704 187.818C117.294 187.814 117.294 185.352 115.708 185.352Z" fill="#424243"/>
<path d="M111.648 169.829H98.0998V183.453H111.648V169.829Z" fill="white"/>
<path d="M111.648 129.744H98.0998V166.423H111.648V129.744Z" fill="white"/>
<path d="M125.795 181.062H122.595C121.846 181.062 121.239 181.712 121.239 182.517V183.235C121.239 184.04 121.846 184.69 122.595 184.69H125.795V181.062Z" fill="#CFD0D2"/>
<path d="M126.041 184.936H122.595C121.711 184.936 120.993 184.174 120.993 183.235V182.517C120.993 181.577 121.711 180.816 122.595 180.816H126.041V184.936ZM122.595 181.308C121.984 181.308 121.485 181.851 121.485 182.517V183.235C121.485 183.901 121.984 184.444 122.595 184.444H125.549V181.308H122.595V181.308Z" fill="#424243"/>
<path d="M133.221 90.206H3.87768V96.3556H133.221V90.206Z" fill="white"/>
<path d="M133.225 88.9729C128.927 88.9729 124.633 88.9729 120.335 88.9729C110.018 88.9729 99.7056 88.9729 89.3889 88.9729C76.9589 88.9729 64.5249 88.9729 52.095 88.9729C41.3461 88.9729 30.5932 88.9729 19.8444 88.9729C14.6107 88.9729 9.3334 88.7707 4.09972 88.9729C4.02438 88.9769 3.95301 88.9729 3.87768 88.9729C3.21158 88.9729 2.64459 89.5359 2.64459 90.206C2.64459 92.2559 2.64459 94.3057 2.64459 96.3556C2.64459 97.0217 3.20761 97.5887 3.87768 97.5887C8.17564 97.5887 12.4696 97.5887 16.7676 97.5887C27.0843 97.5887 37.397 97.5887 47.7137 97.5887C60.1437 97.5887 72.5777 97.5887 85.0077 97.5887C95.7565 97.5887 106.509 97.5887 117.258 97.5887C122.492 97.5887 127.769 97.7909 133.003 97.5887C133.078 97.5847 133.15 97.5887 133.225 97.5887C133.891 97.5887 134.458 97.0257 134.458 96.3556C134.458 94.3057 134.458 92.2559 134.458 90.206C134.458 88.62 131.996 88.62 131.996 90.206C131.996 92.2559 131.996 94.3057 131.996 96.3556C132.408 95.9432 132.817 95.5349 133.229 95.1225C128.931 95.1225 124.637 95.1225 120.339 95.1225C110.022 95.1225 99.7096 95.1225 89.3929 95.1225C76.9629 95.1225 64.5289 95.1225 52.0989 95.1225C41.35 95.1225 30.5972 95.1225 19.8483 95.1225C16.2918 95.1225 12.7313 95.1225 9.1748 95.1225C7.55315 95.1225 5.71343 94.8806 4.10368 95.1225C4.03231 95.1344 3.95301 95.1225 3.88165 95.1225C4.294 95.5349 4.70238 95.9432 5.11473 96.3556C5.11473 94.3057 5.11473 92.2559 5.11473 90.206C4.70238 90.6184 4.294 91.0267 3.88165 91.4391C8.17961 91.4391 12.4736 91.4391 16.7716 91.4391C27.0883 91.4391 37.401 91.4391 47.7177 91.4391C60.1477 91.4391 72.5816 91.4391 85.0116 91.4391C95.7605 91.4391 106.513 91.4391 117.262 91.4391C122.496 91.4391 127.773 91.6413 133.007 91.4391C133.082 91.4351 133.154 91.4391 133.229 91.4391C134.807 91.4391 134.811 88.9729 133.225 88.9729Z" fill="#424243"/>
<path d="M121.203 186.997H89.0479V190.141H121.203V186.997Z" fill="#CFD0D2"/>
<path d="M121.576 190.514H88.6792V186.629H121.576V190.514ZM89.4206 189.773H120.839V187.366H89.4206V189.773V189.773Z" fill="#424243"/>
<path d="M121.203 192.354H89.0479V194.983H121.203V192.354Z" fill="#CFD0D2"/>
<path d="M121.576 195.351H88.6792V191.985H121.576V195.351ZM89.4206 194.61H120.839V192.723H89.4206V194.61V194.61Z" fill="#424243"/>
<path d="M138.423 169.948C136.563 166.594 134.565 160.405 129.49 160.508C123.86 160.623 122.999 166.364 121.009 169.948C119.831 172.066 118.626 174.314 118.785 176.677C118.995 179.793 122.5 181.966 125.755 181.966H129.716H133.677C136.932 181.966 140.437 179.793 140.647 176.677C140.806 174.31 139.601 172.066 138.423 169.948Z" fill="#BCD589"/>
<path d="M139.486 169.326C137.293 165.317 135.346 159.576 129.946 159.287C127.385 159.148 125.061 160.302 123.515 162.312C122.048 164.215 121.346 166.519 120.299 168.648C118.912 171.467 116.87 174.48 117.726 177.791C118.448 180.578 121.199 182.465 123.907 183.005C125.664 183.354 127.523 183.203 129.304 183.203C130.672 183.203 132.035 183.211 133.403 183.203C136.203 183.187 139.085 182.105 140.762 179.769C143.145 176.447 141.218 172.45 139.486 169.326ZM138.732 178.393C137.515 180.051 135.378 180.721 133.407 180.733C130.949 180.749 128.487 180.749 126.033 180.733C124.058 180.721 121.925 180.051 120.708 178.393C118.924 175.967 120.882 172.791 122.08 170.571C123.721 167.522 124.625 162.462 128.685 161.808C133.637 161.007 135.513 167.185 137.364 170.571C138.578 172.771 140.505 175.983 138.732 178.393Z" fill="#424243"/>
<path d="M140.239 185.733H119.197V199.832H140.239V185.733Z" fill="#F0F1F1"/>
<path d="M140.239 198.599C134.101 198.599 127.963 198.599 121.826 198.599C120.95 198.599 120.073 198.599 119.197 198.599C119.609 199.011 120.018 199.419 120.43 199.832C120.43 195.133 120.43 190.435 120.43 185.733C120.018 186.145 119.609 186.553 119.197 186.966C125.335 186.966 131.472 186.966 137.61 186.966C138.486 186.966 139.363 186.966 140.239 186.966C139.826 186.553 139.418 186.145 139.006 185.733C139.006 190.431 139.006 195.129 139.006 199.832C139.006 201.418 141.468 201.418 141.468 199.832C141.468 195.133 141.468 190.435 141.468 185.733C141.468 185.066 140.905 184.5 140.235 184.5C134.097 184.5 127.96 184.5 121.822 184.5C120.946 184.5 120.069 184.5 119.193 184.5C118.527 184.5 117.96 185.063 117.96 185.733C117.96 190.431 117.96 195.129 117.96 199.832C117.96 200.498 118.523 201.065 119.193 201.065C125.331 201.065 131.468 201.065 137.606 201.065C138.482 201.065 139.359 201.065 140.235 201.065C141.821 201.061 141.825 198.599 140.239 198.599Z" fill="#424243"/>
<path d="M128.467 177.097C128.467 179.92 128.467 182.739 128.467 185.562C128.467 187.148 130.929 187.148 130.929 185.562C130.929 182.739 130.929 179.92 130.929 177.097C130.933 175.511 128.467 175.507 128.467 177.097Z" fill="#424243"/>
<path d="M89.3135 123.305C81.0427 123.305 72.7719 123.305 64.4972 123.305C51.3733 123.305 38.2495 123.305 25.1217 123.305C22.1163 123.305 19.1069 123.305 16.1015 123.305C15.4275 123.305 14.8526 123.876 14.8526 124.554C14.8526 131.045 14.8526 137.539 14.8526 144.03C14.8526 154.283 14.8526 164.54 14.8526 174.793C14.8526 177.168 14.8526 179.543 14.8526 181.918C14.8526 182.592 15.4235 183.167 16.1015 183.167C24.3723 183.167 32.6431 183.167 40.9179 183.167C54.0417 183.167 67.1656 183.167 80.2934 183.167C83.2988 183.167 86.3081 183.167 89.3135 183.167C89.6783 183.167 89.9598 183.032 90.1581 182.834C90.1739 182.822 90.1858 182.806 90.2017 182.795C90.2096 182.787 90.2175 182.779 90.2255 182.771C90.4277 182.573 90.5665 182.291 90.5665 181.918C90.5665 175.428 90.5665 168.933 90.5665 162.443C90.5665 152.189 90.5665 141.932 90.5665 131.679C90.5665 129.304 90.5665 126.929 90.5665 124.554C90.5665 123.876 89.9915 123.305 89.3135 123.305ZM64.5011 180.669C51.3773 180.669 38.2534 180.669 25.1256 180.669C22.5365 180.669 19.9475 180.669 17.3544 180.669C17.3544 174.595 17.3544 168.517 17.3544 162.443C17.3544 152.189 17.3544 141.932 17.3544 131.679C17.3544 129.72 17.3544 127.762 17.3544 125.803C25.2089 125.803 33.0634 125.803 40.9179 125.803C54.0417 125.803 67.1656 125.803 80.2934 125.803C82.8825 125.803 85.4716 125.803 88.0646 125.803C88.0646 131.877 88.0646 137.955 88.0646 144.03C88.0646 154.283 88.0646 164.54 88.0646 174.793C88.0646 176.752 88.0646 178.711 88.0646 180.669C80.2101 180.669 72.3556 180.669 64.5011 180.669Z" fill="#424243"/>
<path d="M88.6712 169.948C86.8117 166.594 84.8134 160.405 79.7383 160.508C74.1081 160.623 73.2477 166.364 71.2574 169.948C70.0798 172.066 68.8744 174.314 69.033 176.677C69.2432 179.793 72.7482 181.966 76.0034 181.966H79.9643H83.9252C87.1804 181.966 90.6854 179.793 90.8955 176.677C91.0541 174.31 89.8448 172.066 88.6712 169.948Z" fill="#BCD589"/>
<path d="M89.7338 169.326C87.5412 165.317 85.5945 159.576 80.1942 159.287C77.6329 159.148 75.3095 160.302 73.7632 162.312C72.2961 164.215 71.5944 166.519 70.5476 168.648C69.1599 171.467 67.118 174.48 67.9744 177.791C68.696 180.578 71.4477 182.465 74.1557 183.005C75.9121 183.354 77.7717 183.203 79.5519 183.203C80.9198 183.203 82.2838 183.211 83.6516 183.203C86.4509 183.187 89.3334 182.105 91.0105 179.769C93.3895 176.447 91.4625 172.45 89.7338 169.326C88.9646 167.938 86.8394 169.179 87.6086 170.571C88.8259 172.775 90.7528 175.983 88.9805 178.393C87.7633 180.051 85.6262 180.721 83.6556 180.733C81.1974 180.749 78.7352 180.749 76.2809 180.733C74.3064 180.721 72.1732 180.051 70.956 178.393C69.1718 175.967 71.1305 172.791 72.3279 170.571C73.9693 167.522 74.8733 162.462 78.9334 161.808C83.8856 161.007 85.761 167.185 87.6126 170.571C88.3659 171.958 90.4951 170.717 89.7338 169.326Z" fill="#424243"/>
<path d="M90.4832 185.733H69.4414V199.832H90.4832V185.733Z" fill="#F0F1F1"/>
<path d="M90.4832 198.599C84.3455 198.599 78.2078 198.599 72.0702 198.599C71.1939 198.599 70.3177 198.599 69.4414 198.599C69.8538 199.011 70.2622 199.419 70.6745 199.832C70.6745 195.133 70.6745 190.435 70.6745 185.733C70.2622 186.145 69.8538 186.553 69.4414 186.966C75.5791 186.966 81.7168 186.966 87.8545 186.966C88.7307 186.966 89.6069 186.966 90.4832 186.966C90.0708 186.553 89.6625 186.145 89.2501 185.733C89.2501 190.431 89.2501 195.129 89.2501 199.832C89.2501 201.418 91.7123 201.418 91.7123 199.832C91.7123 195.133 91.7123 190.435 91.7123 185.733C91.7123 185.066 91.1493 184.5 90.4792 184.5C84.3415 184.5 78.2039 184.5 72.0662 184.5C71.1899 184.5 70.3137 184.5 69.4374 184.5C68.7713 184.5 68.2044 185.063 68.2044 185.733C68.2044 190.431 68.2044 195.129 68.2044 199.832C68.2044 200.498 68.7674 201.065 69.4374 201.065C75.5751 201.065 81.7128 201.065 87.8505 201.065C88.7267 201.065 89.603 201.065 90.4792 201.065C92.0692 201.061 92.0692 198.599 90.4832 198.599Z" fill="#424243"/>
<path d="M78.7153 177.097C78.7153 179.92 78.7153 182.739 78.7153 185.562C78.7153 187.148 81.1775 187.148 81.1775 185.562C81.1775 182.739 81.1775 179.92 81.1775 177.097C81.1775 175.511 78.7153 175.507 78.7153 177.097Z" fill="#424243"/>
<path d="M118.19 99.6108H16.1055V120.656H118.19V99.6108Z" fill="white"/>
<path d="M118.19 121.608H16.1055C15.5781 121.608 15.1539 121.18 15.1539 120.656V99.6108C15.1539 99.0834 15.5821 98.6592 16.1055 98.6592H118.19C118.717 98.6592 119.142 99.0874 119.142 99.6108V120.656C119.142 121.184 118.713 121.608 118.19 121.608ZM17.057 119.705H117.234V100.562H17.057V119.705Z" fill="#424243"/>
<path d="M545.076 7.06018L516.956 37.3838H604.054L545.076 7.06018Z" fill="white"/>
<path d="M543.946 5.93014C535.738 14.7798 527.531 23.6295 519.327 32.4831C518.162 33.74 516.996 34.9969 515.83 36.2577C514.903 37.2569 515.537 38.9856 516.96 38.9856C526.813 38.9856 536.666 38.9856 546.519 38.9856C562.101 38.9856 577.683 38.9856 593.261 38.9856C596.861 38.9856 600.457 38.9856 604.058 38.9856C605.588 38.9856 606.306 36.7494 604.862 36.0079C598.193 32.5783 591.528 29.1526 584.86 25.723C574.293 20.291 563.727 14.8591 553.16 9.42719C550.734 8.17824 548.307 6.93326 545.88 5.68432C544.057 4.74463 542.435 7.50025 544.267 8.44389C550.936 11.8735 557.601 15.2992 564.27 18.7289C574.836 24.1608 585.403 29.5927 595.969 35.0246C598.396 36.2736 600.822 37.5186 603.249 38.7675C603.518 37.7763 603.788 36.7811 604.054 35.7899C594.201 35.7899 584.348 35.7899 574.495 35.7899C558.913 35.7899 543.331 35.7899 527.753 35.7899C524.153 35.7899 520.557 35.7899 516.956 35.7899C517.333 36.6978 517.71 37.6098 518.086 38.5177C526.294 29.6681 534.501 20.8184 542.705 11.9647C543.87 10.7079 545.036 9.45098 546.202 8.19014C547.601 6.68347 545.345 4.41951 543.946 5.93014Z" fill="#424243"/>
<path d="M541.301 7.68661C542.07 8.49149 543.109 9.1457 544.12 9.61356C555.694 14.986 567.263 20.3664 578.833 25.7428C587.183 29.6205 595.529 33.5021 603.879 37.3798H617.955C614.053 35.4529 610.152 33.5259 606.25 31.599C594.042 25.5723 581.838 19.5457 569.63 13.515C565.84 11.6436 562.045 9.77216 558.255 7.89676C554.005 5.79932 549.643 3.62258 545.246 1.8582C541.591 0.399112 538.355 4.59002 541.301 7.68661Z" fill="white"/>
<path d="M540.171 8.81656C542.586 11.1678 546.095 12.2859 549.1 13.6815C552.474 15.2476 555.848 16.8177 559.226 18.3878C565.967 21.5201 572.707 24.6564 579.451 27.7887C586.188 30.917 592.924 34.0492 599.661 37.1776C601.278 37.9309 602.84 38.9816 604.652 38.9816C606.068 38.9816 607.483 38.9816 608.899 38.9816C611.92 38.9816 614.941 38.9816 617.959 38.9816C619.473 38.9816 620.227 36.7256 618.763 36.0039C606.468 29.9337 594.177 23.8634 581.882 17.7931C575.697 14.7401 569.511 11.6872 563.33 8.63021C557.569 5.7834 551.764 2.40927 545.674 0.323724C543.434 -0.445469 540.944 0.157198 539.525 2.11983C537.943 4.30053 538.506 6.89754 540.171 8.81656C541.523 10.3708 543.775 8.10288 542.431 6.55656C541.325 5.28383 541.753 3.23 543.668 3.1626C544.822 3.11898 546.174 3.95955 547.185 4.39965C548.466 4.9587 549.738 5.54551 551.003 6.14025C556.32 8.654 561.566 11.3145 566.839 13.9194C577.612 19.2403 588.384 24.5572 599.153 29.8782C605.152 32.8399 611.151 35.8017 617.154 38.7675C617.423 37.7763 617.693 36.7811 617.959 35.7898C615.508 35.7898 613.058 35.7898 610.604 35.7898C609.002 35.7898 607.396 35.7898 605.794 35.7898C605.303 35.7898 604.803 35.8176 604.311 35.7898C604.2 35.7819 604.073 35.8136 603.966 35.7898C603.943 35.7859 603.915 35.7938 603.895 35.7898C604.664 35.9683 602.936 35.1911 602.983 35.2149C589.998 29.1803 577.009 23.1457 564.024 17.1072C560.36 15.4023 556.697 13.7013 553.033 12.0004C551.106 11.1043 549.175 10.2082 547.248 9.31217C545.567 8.53109 543.787 7.87291 542.439 6.56053C540.956 5.12126 538.696 7.3773 540.171 8.81656Z" fill="#424243"/>
<path d="M618.656 108.443H488.933V187.979H618.656V108.443Z" fill="white"/>
<path d="M618.656 186.377C614.347 186.377 610.041 186.377 605.731 186.377C595.386 186.377 585.046 186.377 574.701 186.377C562.248 186.377 549.794 186.377 537.336 186.377C526.524 186.377 515.708 186.377 504.895 186.377C501.331 186.377 497.77 186.377 494.206 186.377C492.604 186.377 490.744 186.115 489.159 186.377C489.087 186.389 489 186.377 488.925 186.377C489.456 186.908 489.991 187.444 490.522 187.975C490.522 179.01 490.522 170.042 490.522 161.077C490.522 146.795 490.522 132.514 490.522 118.232C490.522 114.969 490.522 111.702 490.522 108.439C489.991 108.97 489.456 109.505 488.925 110.037C493.234 110.037 497.54 110.037 501.85 110.037C512.195 110.037 522.535 110.037 532.88 110.037C545.333 110.037 557.787 110.037 570.245 110.037C581.057 110.037 591.873 110.037 602.686 110.037C606.25 110.037 609.811 110.037 613.375 110.037C614.977 110.037 616.837 110.298 618.422 110.037C618.494 110.025 618.581 110.037 618.656 110.037C618.125 109.505 617.59 108.97 617.059 108.439C617.059 117.404 617.059 126.372 617.059 135.337C617.059 149.618 617.059 163.9 617.059 178.182C617.059 181.445 617.059 184.712 617.059 187.975C617.059 190.033 620.254 190.033 620.254 187.975C620.254 179.01 620.254 170.042 620.254 161.077C620.254 146.795 620.254 132.514 620.254 118.232C620.254 114.969 620.254 111.702 620.254 108.439C620.254 107.575 619.521 106.841 618.656 106.841C614.347 106.841 610.041 106.841 605.731 106.841C595.386 106.841 585.046 106.841 574.701 106.841C562.248 106.841 549.794 106.841 537.336 106.841C526.524 106.841 515.708 106.841 504.895 106.841C499.666 106.841 494.384 106.615 489.159 106.841C489.083 106.845 489.004 106.841 488.925 106.841C488.06 106.841 487.327 107.575 487.327 108.439C487.327 117.404 487.327 126.372 487.327 135.337C487.327 149.618 487.327 163.9 487.327 178.182C487.327 181.445 487.327 184.712 487.327 187.975C487.327 188.839 488.06 189.573 488.925 189.573C493.234 189.573 497.54 189.573 501.85 189.573C512.195 189.573 522.535 189.573 532.88 189.573C545.333 189.573 557.787 189.573 570.245 189.573C581.057 189.573 591.873 189.573 602.686 189.573C607.915 189.573 613.197 189.799 618.422 189.573C618.498 189.569 618.577 189.573 618.656 189.573C620.71 189.573 620.714 186.377 618.656 186.377Z" fill="#424243"/>
<path d="M618.656 42.6689H489.571V68.9801H618.656V42.6689Z" fill="white"/>
<path d="M618.656 41.0711C614.362 41.0711 610.072 41.0711 605.778 41.0711C595.525 41.0711 585.272 41.0711 575.019 41.0711C562.565 41.0711 550.111 41.0711 537.661 41.0711C526.94 41.0711 516.215 41.0711 505.494 41.0711C500.276 41.0711 495.003 40.8412 489.789 41.0711C489.718 41.0751 489.642 41.0711 489.571 41.0711C488.706 41.0711 487.973 41.8046 487.973 42.669C487.973 51.4394 487.973 60.2098 487.973 68.9801C487.973 69.8445 488.706 70.578 489.571 70.578C493.865 70.578 498.155 70.578 502.449 70.578C512.702 70.578 522.955 70.578 533.209 70.578C545.662 70.578 558.116 70.578 570.566 70.578C581.287 70.578 592.012 70.578 602.733 70.578C607.951 70.578 613.224 70.808 618.438 70.578C618.51 70.574 618.585 70.578 618.656 70.578C619.521 70.578 620.254 69.8445 620.254 68.9801C620.254 60.2098 620.254 51.4394 620.254 42.669C620.254 40.6112 617.059 40.6112 617.059 42.669C617.059 51.4394 617.059 60.2098 617.059 68.9801C617.59 68.4488 618.125 67.9136 618.656 67.3823C614.362 67.3823 610.072 67.3823 605.778 67.3823C595.525 67.3823 585.272 67.3823 575.019 67.3823C562.565 67.3823 550.111 67.3823 537.661 67.3823C526.94 67.3823 516.215 67.3823 505.494 67.3823C501.953 67.3823 498.413 67.3823 494.876 67.3823C493.262 67.3823 491.387 67.1166 489.789 67.3823C489.721 67.3942 489.642 67.3823 489.571 67.3823C490.102 67.9136 490.637 68.4488 491.169 68.9801C491.169 60.2098 491.169 51.4394 491.169 42.669C490.637 43.2003 490.102 43.7356 489.571 44.2669C493.865 44.2669 498.155 44.2669 502.449 44.2669C512.702 44.2669 522.955 44.2669 533.209 44.2669C545.662 44.2669 558.116 44.2669 570.566 44.2669C581.287 44.2669 592.012 44.2669 602.733 44.2669C607.951 44.2669 613.224 44.4968 618.438 44.2669C618.51 44.2629 618.585 44.2669 618.656 44.2669C620.71 44.2669 620.714 41.0711 618.656 41.0711Z" fill="#424243"/>
<path d="M499.638 108.76L506.188 68.9801H523.28L521.044 108.76C521.044 108.76 520.402 119.465 510.339 119.465C500.276 119.465 499.638 108.76 499.638 108.76Z" fill="white"/>
<path d="M501.176 109.184C503.087 97.583 504.994 85.9777 506.905 74.3764C507.179 72.719 507.453 71.0617 507.722 69.4044C507.207 69.7969 506.695 70.1855 506.18 70.578C511.877 70.578 517.575 70.578 523.273 70.578C522.741 70.0467 522.206 69.5114 521.675 68.9801C521.139 78.5316 520.6 88.087 520.065 97.6385C519.859 101.33 519.649 105.017 519.442 108.709C519.439 108.744 519.439 108.784 519.435 108.82C519.399 109.327 519.454 108.812 519.391 109.196C519.224 110.179 518.987 111.151 518.634 112.083C517.599 114.803 515.573 116.932 512.686 117.618C508.935 118.51 504.939 117.249 502.913 113.891C502.227 112.757 501.775 111.524 501.477 110.235C501.378 109.811 501.303 109.379 501.236 108.946C501.295 109.355 501.236 108.931 501.228 108.76C501.097 106.718 497.901 106.702 498.032 108.76C498.365 113.97 501.557 119.172 506.771 120.607C510.688 121.686 515.2 120.948 518.277 118.224C520.414 116.333 521.738 113.573 522.325 110.814C522.916 108.054 522.836 105.104 522.991 102.305C523.36 95.7433 523.729 89.1813 524.097 82.6194C524.351 78.0717 524.609 73.5279 524.863 68.9801C524.91 68.1158 524.089 67.3823 523.265 67.3823C517.567 67.3823 511.87 67.3823 506.172 67.3823C505.534 67.3823 504.745 67.8739 504.63 68.5559C502.719 80.1572 500.811 91.7625 498.9 103.364C498.627 105.021 498.353 106.678 498.084 108.336C497.766 110.346 500.843 111.214 501.176 109.184Z" fill="#424243"/>
<path d="M542.451 108.76V68.9801H563.857V108.76C563.857 108.76 563.536 119.465 553.152 119.465C542.768 119.465 542.451 108.76 542.451 108.76Z" fill="white"/>
<path d="M544.049 108.76C544.049 97.131 544.049 85.5059 544.049 73.8768C544.049 72.2432 544.049 70.6097 544.049 68.9801C543.517 69.5114 542.982 70.0467 542.451 70.578C549.588 70.578 556.721 70.578 563.857 70.578C563.326 70.0467 562.791 69.5114 562.26 68.9801C562.26 78.7378 562.26 88.4994 562.26 98.257C562.26 101.746 562.406 105.267 562.26 108.752C562.256 108.827 562.252 108.903 562.248 108.978C562.244 109.081 562.228 109.184 562.22 109.287C562.18 109.735 562.224 109.307 562.184 109.569C562.018 110.588 561.764 111.611 561.367 112.566C560.245 115.274 558.065 117.178 555.15 117.709C551.324 118.407 547.411 117.122 545.468 113.645C544.873 112.578 544.493 111.417 544.247 110.223C544.092 109.466 544.076 109.545 544.049 108.76C543.977 106.71 540.782 106.698 540.853 108.76C541.027 113.863 544.084 118.902 549.076 120.48C552.958 121.709 557.68 121.123 560.88 118.526C563.104 116.718 564.496 114.025 565.102 111.254C565.705 108.514 565.455 105.624 565.455 102.84C565.455 96.2428 565.455 89.6413 565.455 83.0437C565.455 78.3571 565.455 73.6666 565.455 68.9801C565.455 68.1158 564.722 67.3823 563.857 67.3823C556.721 67.3823 549.588 67.3823 542.451 67.3823C541.586 67.3823 540.853 68.1158 540.853 68.9801C540.853 80.6092 540.853 92.2343 540.853 103.863C540.853 105.497 540.853 107.13 540.853 108.76C540.853 110.818 544.049 110.818 544.049 108.76Z" fill="#424243"/>
<path d="M585.268 108.76L584.626 68.9801H602.361L606.674 108.76C606.674 108.76 606.195 117.867 597.246 119.303C588.301 120.742 585.486 112.61 585.268 108.76Z" fill="white"/>
<path d="M586.866 108.76C586.679 97.131 586.493 85.5059 586.303 73.8768C586.275 72.2432 586.251 70.6097 586.223 68.9801C585.692 69.5114 585.157 70.0467 584.626 70.578C590.537 70.578 596.449 70.578 602.361 70.578C601.829 70.0467 601.294 69.5114 600.763 68.9801C601.714 77.7426 602.666 86.509 603.614 95.2714C604.069 99.4782 604.525 103.685 604.981 107.892C605.013 108.173 605.057 108.455 605.073 108.736C605.077 108.792 605.065 108.851 605.065 108.907C605.069 109.367 605.104 108.855 604.985 109.446C604.51 111.777 603.558 113.99 601.742 115.596C598.864 118.141 593.812 118.819 590.652 116.428C588.353 114.692 587.056 111.583 586.866 108.76C586.731 106.718 583.531 106.702 583.67 108.76C584.142 115.79 589.336 121.832 596.782 120.968C602.801 120.27 608.106 115.223 608.256 108.938C608.328 106.06 607.646 102.995 607.337 100.14C606.659 93.8996 605.981 87.6588 605.307 81.418C604.859 77.2707 604.407 73.1274 603.958 68.9801C603.867 68.1197 603.3 67.3823 602.361 67.3823C596.449 67.3823 590.537 67.3823 584.626 67.3823C583.773 67.3823 583.016 68.1158 583.028 68.9801C583.214 80.6092 583.4 92.2343 583.591 103.863C583.618 105.497 583.642 107.13 583.67 108.76C583.702 110.814 586.897 110.822 586.866 108.76Z" fill="#424243"/>
<path d="M628.085 108.76L619.774 68.9801H602.361L606.674 108.76C606.674 108.76 606.674 119.465 617.376 119.465C628.081 119.465 628.085 108.76 628.085 108.76Z" fill="white"/>
<path d="M629.623 108.336C627.197 96.7186 624.77 85.0975 622.344 73.4803C622.003 71.8388 621.658 70.1973 621.317 68.5559C621.174 67.8739 620.445 67.3823 619.774 67.3823C613.97 67.3823 608.165 67.3823 602.361 67.3823C601.568 67.3823 600.668 68.1158 600.763 68.9801C601.913 79.5863 603.062 90.1924 604.216 100.799C604.541 103.78 604.823 106.77 605.152 109.747C605.437 112.368 606.322 114.925 607.991 116.995C610.508 120.112 614.553 121.305 618.454 121.02C624.98 120.544 629.651 115.266 629.683 108.756C629.695 106.698 626.499 106.698 626.487 108.756C626.479 110.041 626.206 111.381 625.591 112.824C624.378 115.663 621.927 117.427 618.863 117.784C615.441 118.185 611.801 117.237 609.89 114.188C608.875 112.57 608.403 110.54 608.284 109.038C607.555 99.8668 606.318 90.7078 605.326 81.5608C604.87 77.3659 604.414 73.171 603.962 68.9722C603.431 69.5035 602.896 70.0387 602.365 70.57C608.169 70.57 613.974 70.57 619.778 70.57C619.263 70.1775 618.752 69.789 618.236 69.3964C620.663 81.0136 623.089 92.6348 625.516 104.252C625.857 105.893 626.202 107.535 626.543 109.176C626.963 111.198 630.044 110.346 629.623 108.336Z" fill="#424243"/>
<path d="M609.549 124.136H583.88V187.979H609.549V124.136Z" fill="white"/>
<path d="M609.553 186.377C600.997 186.377 592.44 186.377 583.884 186.377C584.415 186.908 584.951 187.444 585.482 187.975C585.482 180.791 585.482 173.602 585.482 166.418C585.482 154.959 585.482 143.501 585.482 132.042C585.482 129.405 585.482 126.769 585.482 124.132C584.951 124.663 584.415 125.199 583.884 125.73C592.44 125.73 600.997 125.73 609.553 125.73C609.022 125.199 608.486 124.663 607.955 124.132C607.955 131.316 607.955 138.505 607.955 145.689C607.955 157.148 607.955 168.606 607.955 180.065C607.955 182.702 607.955 185.338 607.955 187.975C607.955 190.033 611.151 190.033 611.151 187.975C611.151 180.791 611.151 173.602 611.151 166.418C611.151 154.959 611.151 143.501 611.151 132.042C611.151 129.405 611.151 126.769 611.151 124.132C611.151 123.268 610.417 122.534 609.553 122.534C600.997 122.534 592.44 122.534 583.884 122.534C583.02 122.534 582.286 123.268 582.286 124.132C582.286 131.316 582.286 138.505 582.286 145.689C582.286 157.148 582.286 168.606 582.286 180.065C582.286 182.702 582.286 185.338 582.286 187.975C582.286 188.839 583.02 189.573 583.884 189.573C592.44 189.573 600.997 189.573 609.553 189.573C611.607 189.573 611.611 186.377 609.553 186.377Z" fill="#424243"/>
<g opacity="0.56">
<g opacity="0.56">
<g opacity="0.56">
<g opacity="0.56">
<g opacity="0.56">
<g opacity="0.56">
<path opacity="0.56" d="M550.999 203.339H479.904C479.246 203.339 478.707 202.8 478.707 202.142C478.707 201.483 479.246 200.944 479.904 200.944H550.995C551.653 200.944 552.193 201.483 552.193 202.142C552.197 202.8 551.657 203.339 550.999 203.339Z" fill="#424243"/>
</g>
</g>
</g>
</g>
</g>
</g>
<g opacity="0.56">
<g opacity="0.56">
<g opacity="0.56">
<g opacity="0.56">
<g opacity="0.56">
<g opacity="0.56">
<path opacity="0.56" d="M557.708 203.339H555.951C555.293 203.339 554.754 202.8 554.754 202.142C554.754 201.483 555.293 200.944 555.951 200.944H557.708C558.366 200.944 558.905 201.483 558.905 202.142C558.905 202.8 558.366 203.339 557.708 203.339Z" fill="#424243"/>
</g>
</g>
</g>
</g>
</g>
</g>
<path d="M523.28 68.98H542.455V108.76C542.455 108.76 541.337 119.303 531.75 119.465C522.162 119.624 521.044 108.76 521.044 108.76L523.28 68.98Z" fill="white"/>
<path d="M523.28 70.578C529.672 70.578 536.063 70.578 542.455 70.578C541.923 70.0467 541.388 69.5114 540.857 68.9801C540.857 76.0892 540.857 83.1983 540.857 90.3034C540.857 94.8234 540.857 99.3394 540.857 103.859C540.857 105.219 540.857 106.575 540.857 107.935C540.857 108.181 540.857 108.427 540.857 108.677C540.857 109.038 540.976 108.197 540.837 108.855C539.973 112.943 537.816 116.908 533.335 117.721C528.149 118.664 524.399 115.286 523.051 110.54C522.884 109.95 522.745 109.347 522.646 108.74C522.583 108.344 522.626 109.085 522.654 108.641C522.706 107.777 522.753 106.908 522.801 106.044C523.035 101.893 523.269 97.7416 523.499 93.5903C523.958 85.3869 524.418 77.1835 524.882 68.9801C524.997 66.9263 521.802 66.9303 521.687 68.9801C521.266 76.454 520.846 83.9278 520.426 91.4017C520.168 95.9812 519.91 100.557 519.653 105.136C519.55 106.98 519.331 108.689 519.74 110.501C520.787 115.144 523.796 119.6 528.661 120.738C534.632 122.134 540.29 119.081 542.713 113.566C543.605 111.535 544.053 109.557 544.053 107.368C544.053 103.447 544.053 99.5298 544.053 95.6085C544.053 86.9213 544.211 78.2144 544.053 69.5273C544.049 69.3449 544.053 69.1585 544.053 68.9762C544.053 68.1118 543.319 67.3783 542.455 67.3783C536.063 67.3783 529.672 67.3783 523.28 67.3783C521.223 67.3823 521.219 70.578 523.28 70.578Z" fill="#424243"/>
<path d="M563.857 68.98V108.76C563.857 108.76 564.337 119.624 574.563 119.465C584.784 119.307 585.268 108.76 585.268 108.76L584.626 68.98H563.857V68.98Z" fill="white"/>
<path d="M562.259 68.9801C562.259 76.565 562.259 84.1499 562.259 91.7347C562.259 96.3182 562.259 100.902 562.259 105.481C562.259 107.297 562.188 109.05 562.545 110.838C563.485 115.568 566.645 119.81 571.569 120.786C577.639 121.991 583.436 119.208 585.771 113.443C586.556 111.512 586.874 109.553 586.842 107.491C586.778 103.582 586.715 99.6685 586.652 95.7591C586.509 87.0205 586.509 78.2659 586.227 69.5273C586.223 69.3449 586.223 69.1585 586.219 68.9762C586.204 68.1118 585.498 67.3783 584.622 67.3783C577.699 67.3783 570.776 67.3783 563.853 67.3783C561.796 67.3783 561.796 70.574 563.853 70.574C570.776 70.574 577.699 70.574 584.622 70.574C584.09 70.0427 583.555 69.5075 583.024 68.9762C583.139 76.0852 583.254 83.1943 583.369 90.2994C583.444 94.8908 583.515 99.4822 583.591 104.074C583.618 105.782 583.785 107.543 583.622 109.248C583.587 109.636 583.686 108.863 583.611 109.315C583.587 109.466 583.563 109.62 583.531 109.771C583.456 110.14 583.377 110.505 583.277 110.869C583.02 111.821 582.667 112.729 582.179 113.589C580.958 115.73 579.011 117.15 576.589 117.657C571.315 118.76 567.105 115.853 565.812 110.81C565.546 109.775 565.471 109.426 565.455 108.716C565.439 107.927 565.455 107.138 565.455 106.349C565.455 102.258 565.455 98.1698 565.455 94.078C565.455 85.712 565.455 77.3461 565.455 68.9762C565.455 66.9263 562.259 66.9223 562.259 68.9801Z" fill="#424243"/>
<path d="M506.227 69.0039C505.28 74.7094 504.332 80.4109 503.381 86.1164C502.179 93.3405 500.922 100.561 499.777 107.797C499.336 110.572 498.809 113.098 497.057 115.425C495.098 118.026 492.116 119.362 488.893 119.461C478.985 119.763 478.977 108.423 478.977 108.423L489.614 68.9801L506.227 69.0039Z" fill="white"/>
<path d="M504.685 68.5797C503.531 75.5222 502.385 82.4648 501.216 89.4073C500.609 93.0194 499.995 96.6314 499.392 100.243C498.845 103.53 498.492 106.908 497.699 110.148C497.005 112.987 495.53 115.544 492.846 116.896C490.748 117.951 488.088 118.208 485.848 117.471C482.949 116.515 481.49 113.7 480.876 110.893C480.682 110.001 480.745 109.501 480.574 108.586C480.503 108.193 480.499 108.911 480.527 108.8C480.567 108.645 480.606 108.486 480.654 108.332C481.177 106.54 481.629 104.72 482.113 102.916C483.873 96.3935 485.63 89.8712 487.39 83.349C488.643 78.7021 489.896 74.0552 491.149 69.4044C490.633 69.7969 490.122 70.1855 489.607 70.578C495.146 70.5859 500.684 70.5978 506.219 70.6057C508.277 70.6097 508.277 67.414 506.219 67.41C500.681 67.4021 495.142 67.3902 489.607 67.3823C488.909 67.3823 488.247 67.8779 488.064 68.5559C485.031 79.8004 481.998 91.0448 478.965 102.293C478.477 104.097 477.922 105.897 477.502 107.721C477.18 109.121 477.533 110.699 477.862 112.067C478.655 115.366 480.547 118.561 483.715 120.048C488.389 122.245 494.551 120.873 497.877 116.944C500.141 114.267 500.867 110.98 501.41 107.61C502.108 103.269 502.833 98.935 503.563 94.6014C504.978 86.2156 506.366 77.8258 507.762 69.4401C508.103 67.4179 505.022 66.5496 504.685 68.5797Z" fill="#424243"/>
<path d="M530.869 127.597H498.758V165.193H530.869V127.597Z" fill="white"/>
<path d="M530.869 164.392C521.512 164.392 512.155 164.392 502.798 164.392C501.45 164.392 500.106 164.392 498.758 164.392C499.023 164.657 499.289 164.923 499.554 165.189C499.554 154.214 499.554 143.239 499.554 132.264C499.554 130.706 499.554 129.152 499.554 127.593C499.289 127.859 499.023 128.125 498.758 128.39C508.115 128.39 517.472 128.39 526.829 128.39C528.177 128.39 529.521 128.39 530.869 128.39C530.604 128.125 530.338 127.859 530.072 127.593C530.072 138.568 530.072 149.543 530.072 160.518C530.072 162.076 530.072 163.63 530.072 165.189C530.072 166.216 531.67 166.22 531.67 165.189C531.67 154.214 531.67 143.239 531.67 132.264C531.67 130.706 531.67 129.152 531.67 127.593C531.67 127.161 531.305 126.796 530.873 126.796C521.516 126.796 512.159 126.796 502.802 126.796C501.454 126.796 500.11 126.796 498.762 126.796C498.329 126.796 497.965 127.161 497.965 127.593C497.965 138.568 497.965 149.543 497.965 160.518C497.965 162.076 497.965 163.63 497.965 165.189C497.965 165.621 498.329 165.986 498.762 165.986C508.119 165.986 517.476 165.986 526.833 165.986C528.181 165.986 529.525 165.986 530.873 165.986C531.896 165.99 531.9 164.392 530.869 164.392Z" fill="#424243"/>
<path d="M567.454 127.522H536.67V165.117H567.454V127.522Z" fill="white"/>
<path d="M567.458 126.796C558.473 126.796 549.493 126.796 540.508 126.796C539.227 126.796 537.951 126.796 536.67 126.796C536.238 126.796 535.873 127.161 535.873 127.593C535.873 138.568 535.873 149.543 535.873 160.518C535.873 162.076 535.873 163.63 535.873 165.189C535.873 165.621 536.238 165.986 536.67 165.986C545.654 165.986 554.635 165.986 563.619 165.986C564.9 165.986 566.177 165.986 567.458 165.986C567.676 165.986 567.838 165.902 567.965 165.791C567.985 165.775 568.005 165.768 568.021 165.752C568.036 165.736 568.044 165.72 568.056 165.7C568.171 165.573 568.254 165.411 568.254 165.189C568.254 154.214 568.254 143.239 568.254 132.264C568.254 130.706 568.254 129.152 568.254 127.593C568.254 127.165 567.89 126.796 567.458 126.796ZM540.508 164.392C539.497 164.392 538.482 164.392 537.471 164.392C537.471 153.682 537.471 142.973 537.471 132.264C537.471 130.971 537.471 129.683 537.471 128.39C546.186 128.39 554.905 128.39 563.619 128.39C564.631 128.39 565.646 128.39 566.657 128.39C566.657 139.1 566.657 149.809 566.657 160.518C566.657 161.811 566.657 163.099 566.657 164.392C557.942 164.392 549.223 164.392 540.508 164.392Z" fill="#424243"/>
<path d="M517.345 156.747C517.345 153.496 514.708 150.859 511.457 150.859C508.622 150.859 506.251 152.866 505.696 155.538C505.45 155.518 505.204 155.506 504.955 155.506C502.818 155.506 500.847 156.2 499.245 157.374C498.746 156.985 498.119 156.747 497.437 156.747C495.812 156.747 494.491 158.064 494.491 159.693C494.491 160.704 495.003 161.596 495.78 162.128C495.463 163.087 495.288 164.11 495.288 165.177C495.288 170.518 499.618 174.847 504.959 174.847C510.299 174.847 514.629 170.518 514.629 165.177C514.629 164.067 514.439 163.004 514.098 162.013C516.021 161.041 517.345 159.051 517.345 156.747Z" fill="#BCD589"/>
<path d="M518.146 156.747C518.023 153.437 515.7 150.554 512.329 150.122C508.856 149.682 505.756 151.978 504.927 155.32C505.185 155.126 505.442 154.927 505.696 154.733C503.222 154.583 500.875 155.268 498.841 156.68C499.11 156.68 499.38 156.68 499.646 156.68C495.625 154.027 491.446 159.658 495.213 162.687C495.146 162.429 495.074 162.167 495.007 161.91C492.981 168.579 497.83 175.656 504.955 175.64C512.123 175.624 516.988 168.511 514.863 161.795C514.74 162.096 514.617 162.397 514.494 162.699C516.75 161.462 518.047 159.305 518.146 156.747C518.186 155.72 516.588 155.72 516.548 156.747C516.473 158.762 515.446 160.355 513.689 161.319C513.392 161.481 513.218 161.894 513.321 162.223C515.129 167.936 511.12 174.046 504.955 174.046C498.849 174.046 494.82 168.028 496.549 162.338C496.624 162.088 496.553 161.731 496.343 161.561C494.019 159.689 496.315 156.398 498.841 158.064C499.063 158.21 499.428 158.218 499.646 158.064C501.466 156.799 503.472 156.2 505.692 156.335C506.033 156.355 506.382 156.073 506.461 155.748C507.897 149.955 516.322 150.733 516.544 156.747C516.588 157.77 518.186 157.774 518.146 156.747Z" fill="#424243"/>
<path d="M540.138 174.031C543.995 170.174 543.995 163.921 540.138 160.064C536.281 156.207 530.028 156.207 526.171 160.064C522.314 163.921 522.314 170.174 526.171 174.031C530.028 177.888 536.281 177.888 540.138 174.031Z" fill="#BCD589"/>
<path d="M542.237 167.048C542.13 171.996 538.181 176.128 533.157 176.128C528.201 176.128 524.077 172 524.077 167.048C524.077 162.1 528.201 157.969 533.157 157.969C538.181 157.973 542.126 162.1 542.237 167.048C542.261 168.075 543.858 168.079 543.835 167.048C543.739 162.631 541.103 158.643 536.924 157.061C532.701 155.463 527.789 156.771 524.922 160.26C522.099 163.694 521.699 168.666 523.974 172.496C526.246 176.314 530.731 178.332 535.096 177.547C540.175 176.635 543.72 172.123 543.831 167.052C543.854 166.021 542.257 166.021 542.237 167.048Z" fill="#424243"/>
<path d="M560.67 178.257C566.124 178.257 570.546 173.537 570.546 167.714C570.546 161.892 566.124 157.172 560.67 157.172C555.215 157.172 550.793 161.892 550.793 167.714C550.793 173.537 555.215 178.257 560.67 178.257Z" fill="#BCD589"/>
<path d="M569.749 167.714C569.65 172.734 565.967 177.456 560.67 177.456C555.448 177.456 551.59 172.738 551.59 167.714C551.59 162.691 555.448 157.973 560.67 157.973C565.967 157.973 569.65 162.695 569.749 167.714C569.769 168.741 571.367 168.745 571.347 167.714C571.256 163.143 568.714 158.777 564.349 157.073C560.075 155.403 555.25 156.91 552.454 160.482C549.564 164.178 549.211 169.483 551.519 173.559C553.719 177.444 558.132 179.696 562.565 178.872C567.87 177.884 571.24 172.9 571.343 167.714C571.367 166.683 569.769 166.683 569.749 167.714Z" fill="#424243"/>
<path d="M576.89 168.376H488.932V187.975H576.89V168.376Z" fill="#F0F1F1"/>
<path d="M576.89 167.579C566.998 167.579 557.105 167.579 547.213 167.579C531.428 167.579 515.644 167.579 499.864 167.579C496.22 167.579 492.576 167.579 488.936 167.579C488.504 167.579 488.139 167.944 488.139 168.376C488.139 174.911 488.139 181.441 488.139 187.975C488.139 188.407 488.504 188.772 488.936 188.772C498.829 188.772 508.721 188.772 518.614 188.772C534.398 188.772 550.182 188.772 565.963 188.772C569.606 188.772 573.25 188.772 576.89 188.772C577.322 188.772 577.687 188.407 577.687 187.975C577.687 181.441 577.687 174.911 577.687 168.376C577.687 167.35 576.089 167.346 576.089 168.376C576.089 174.911 576.089 181.441 576.089 187.975C576.355 187.709 576.62 187.444 576.886 187.178C566.994 187.178 557.101 187.178 547.209 187.178C531.424 187.178 515.64 187.178 499.86 187.178C496.216 187.178 492.572 187.178 488.932 187.178C489.198 187.444 489.464 187.709 489.729 187.975C489.729 181.441 489.729 174.911 489.729 168.376C489.464 168.642 489.198 168.908 488.932 169.173C498.825 169.173 508.717 169.173 518.61 169.173C534.394 169.173 550.178 169.173 565.959 169.173C569.603 169.173 573.246 169.173 576.886 169.173C577.917 169.177 577.921 167.579 576.89 167.579Z" fill="#424243"/>
<path d="M516.651 171.802H493.647V183.59H516.651V171.802Z" fill="#F0F1F1"/>
<path d="M516.651 182.987C508.983 182.987 501.315 182.987 493.647 182.987C493.845 183.185 494.047 183.388 494.245 183.586C494.245 179.657 494.245 175.727 494.245 171.798C494.047 171.996 493.845 172.199 493.647 172.397C501.315 172.397 508.983 172.397 516.651 172.397C516.453 172.199 516.251 171.996 516.052 171.798C516.052 175.727 516.052 179.657 516.052 183.586C516.052 184.355 517.25 184.359 517.25 183.586C517.25 179.657 517.25 175.727 517.25 171.798C517.25 171.473 516.976 171.199 516.651 171.199C508.983 171.199 501.315 171.199 493.647 171.199C493.322 171.199 493.048 171.473 493.048 171.798C493.048 175.727 493.048 179.657 493.048 183.586C493.048 183.911 493.322 184.185 493.647 184.185C501.315 184.185 508.983 184.185 516.651 184.185C517.424 184.189 517.424 182.987 516.651 182.987Z" fill="#424243"/>
<path d="M544.413 171.802H521.409V183.59H544.413V171.802Z" fill="#F0F1F1"/>
<path d="M544.413 182.987C536.745 182.987 529.077 182.987 521.409 182.987C521.607 183.185 521.81 183.388 522.008 183.586C522.008 179.657 522.008 175.727 522.008 171.798C521.81 171.996 521.607 172.199 521.409 172.397C529.077 172.397 536.745 172.397 544.413 172.397C544.215 172.199 544.013 171.996 543.815 171.798C543.815 175.727 543.815 179.657 543.815 183.586C543.815 184.355 545.012 184.359 545.012 183.586C545.012 179.657 545.012 175.727 545.012 171.798C545.012 171.473 544.739 171.199 544.413 171.199C536.745 171.199 529.077 171.199 521.409 171.199C521.084 171.199 520.81 171.473 520.81 171.798C520.81 175.727 520.81 179.657 520.81 183.586C520.81 183.911 521.084 184.185 521.409 184.185C529.077 184.185 536.745 184.185 544.413 184.185C545.183 184.189 545.187 182.987 544.413 182.987Z" fill="#424243"/>
<path d="M572.172 171.802H549.167V183.59H572.172V171.802Z" fill="#F0F1F1"/>
<path d="M572.172 182.987C564.504 182.987 556.836 182.987 549.167 182.987C549.366 183.185 549.568 183.388 549.766 183.586C549.766 179.657 549.766 175.727 549.766 171.798C549.568 171.996 549.366 172.199 549.167 172.397C556.836 172.397 564.504 172.397 572.172 172.397C571.974 172.199 571.771 171.996 571.573 171.798C571.573 175.727 571.573 179.657 571.573 183.586C571.573 184.355 572.77 184.359 572.77 183.586C572.77 179.657 572.77 175.727 572.77 171.798C572.77 171.473 572.497 171.199 572.172 171.199C564.504 171.199 556.836 171.199 549.167 171.199C548.842 171.199 548.569 171.473 548.569 171.798C548.569 175.727 548.569 179.657 548.569 183.586C548.569 183.911 548.842 184.185 549.167 184.185C556.836 184.185 564.504 184.185 572.172 184.185C572.945 184.189 572.945 182.987 572.172 182.987Z" fill="#424243"/>
<path d="M625.472 37.3838H480.84V43.9457H625.472V37.3838Z" fill="white"/>
<path d="M625.472 35.7859C620.682 35.7859 615.889 35.7859 611.099 35.7859C599.593 35.7859 588.083 35.7859 576.577 35.7859C562.652 35.7859 548.727 35.7859 534.803 35.7859C522.761 35.7859 510.716 35.7859 498.674 35.7859C492.83 35.7859 486.93 35.548 481.09 35.7859C481.007 35.7899 480.923 35.7859 480.836 35.7859C479.972 35.7859 479.238 36.5194 479.238 37.3838C479.238 39.5724 479.238 41.7571 479.238 43.9457C479.238 44.81 479.972 45.5435 480.836 45.5435C485.626 45.5435 490.419 45.5435 495.209 45.5435C506.715 45.5435 518.221 45.5435 529.731 45.5435C543.656 45.5435 557.581 45.5435 571.506 45.5435C583.547 45.5435 595.593 45.5435 607.634 45.5435C613.478 45.5435 619.378 45.7814 625.218 45.5435C625.302 45.5396 625.385 45.5435 625.472 45.5435C626.336 45.5435 627.07 44.81 627.07 43.9457C627.07 41.7571 627.07 39.5724 627.07 37.3838C627.07 35.326 623.874 35.326 623.874 37.3838C623.874 39.5724 623.874 41.7571 623.874 43.9457C624.406 43.4144 624.941 42.8791 625.472 42.3478C620.682 42.3478 615.889 42.3478 611.099 42.3478C599.593 42.3478 588.083 42.3478 576.577 42.3478C562.652 42.3478 548.727 42.3478 534.803 42.3478C522.761 42.3478 510.716 42.3478 498.674 42.3478C494.69 42.3478 490.709 42.3478 486.724 42.3478C484.928 42.3478 482.87 42.0663 481.09 42.3478C481.011 42.3597 480.919 42.3478 480.836 42.3478C481.367 42.8791 481.903 43.4144 482.434 43.9457C482.434 41.7571 482.434 39.5724 482.434 37.3838C481.903 37.9151 481.367 38.4503 480.836 38.9816C485.626 38.9816 490.419 38.9816 495.209 38.9816C506.715 38.9816 518.221 38.9816 529.731 38.9816C543.656 38.9816 557.581 38.9816 571.506 38.9816C583.547 38.9816 595.593 38.9816 607.634 38.9816C613.478 38.9816 619.378 39.2195 625.218 38.9816C625.302 38.9777 625.385 38.9816 625.472 38.9816C627.53 38.9816 627.534 35.7859 625.472 35.7859Z" fill="#424243"/>
<g opacity="0.18">
<g opacity="0.18">
<g opacity="0.18">
<g opacity="0.18">
<g opacity="0.18">
<g opacity="0.18">
<path opacity="0.18" d="M488.552 119.465C494.464 119.465 499.257 114.672 499.257 108.76C499.257 114.672 504.051 119.465 509.962 119.465C515.874 119.465 520.668 114.672 520.668 108.76C520.668 114.672 525.461 119.465 531.373 119.465C537.285 119.465 542.078 114.672 542.078 108.76C542.078 114.672 546.872 119.465 552.783 119.465C558.695 119.465 563.489 114.672 563.489 108.76C563.489 114.672 568.282 119.465 574.194 119.465C580.106 119.465 584.899 114.672 584.899 108.76C584.899 114.672 589.693 119.465 595.604 119.465C601.516 119.465 606.31 114.672 606.31 108.76C606.31 114.672 611.103 119.465 617.015 119.465C622.927 119.465 627.72 114.672 627.72 108.76L627.558 108.439H478.62C478.62 108.443 477.93 119.465 488.552 119.465Z" fill="#272525"/>
</g>
</g>
</g>
</g>
</g>
</g>
<path d="M628.398 187.975H478.988V196.626H628.398V187.975Z" fill="#F0F1F1"/>
<path d="M480.586 196.626C480.586 193.744 480.586 190.857 480.586 187.975C480.055 188.506 479.52 189.042 478.988 189.573C483.937 189.573 488.889 189.573 493.837 189.573C505.728 189.573 517.615 189.573 529.505 189.573C543.89 189.573 558.279 189.573 572.663 189.573C585.105 189.573 597.543 189.573 609.985 189.573C614.089 189.573 618.189 189.573 622.292 189.573C624.164 189.573 626.285 189.854 628.144 189.573C628.228 189.561 628.319 189.573 628.402 189.573C627.871 189.042 627.336 188.506 626.804 187.975C626.804 190.857 626.804 193.744 626.804 196.626C626.804 198.684 630 198.684 630 196.626C630 193.744 630 190.857 630 187.975C630 187.111 629.266 186.377 628.402 186.377C623.454 186.377 618.502 186.377 613.554 186.377C601.663 186.377 589.776 186.377 577.885 186.377C563.5 186.377 549.112 186.377 534.727 186.377C522.285 186.377 509.847 186.377 497.405 186.377C491.371 186.377 485.281 186.135 479.246 186.377C479.159 186.381 479.072 186.377 478.988 186.377C478.124 186.377 477.391 187.111 477.391 187.975C477.391 190.857 477.391 193.744 477.391 196.626C477.391 198.684 480.586 198.688 480.586 196.626Z" fill="#424243"/>
</svg>
